<?xml version="1.0" encoding="utf-8"?>
<!-- Generator: Adobe Illustrator 15.0.0, SVG Export Plug-In . SVG Version: 6.00 Build 0)  -->
<!DOCTYPE svg PUBLIC "-//W3C//DTD SVG 1.1//EN" "http://www.w3.org/Graphics/SVG/1.1/DTD/svg11.dtd">
<svg version="1.1" id="Livello_1" xmlns="http://www.w3.org/2000/svg" xmlns:xlink="http://www.w3.org/1999/xlink" x="0px" y="0px"
	 width="1365px" height="768px" viewBox="0 0 1365 768" enable-background="new 0 0 1365 768" xml:space="preserve">
<g id="_x222B_">
	<g>
		<path d="M594.123,359.789l7.124-33.6c3.479-15.2,8.304-22.932,14.487-23.201c2.131,0,3.033,0.938,2.705,2.8
			c-0.236,1.338-1.021,2-2.353,2c-0.8,0-1.506-0.531-2.117-1.599c-0.442-0.532-0.796-0.8-1.058-0.8c-1.996-0.8-4.657,6-7.996,20.4
			l-7.266,34.4c-4.533,22.662-10.036,33.463-16.508,32.399c-1.868,0-2.634-0.938-2.306-2.799c0.236-1.338,1.016-2.001,2.353-2.001
			c0.8,0,1.505,0.532,2.115,1.601c0.17,0.531,0.391,0.801,0.659,0.801C586.391,391.52,589.776,381.388,594.123,359.789z"/>
	</g>
</g>
<g id="architetture_linguaggi_visioni_a_invarianza_di_scala_1_">
	<g id="architetture_linguaggi_visioni_a_invarianza_di_scala">
		<path d="M626.271,349.902c-0.584,0-1.044-0.15-1.38-0.45c-0.336-0.3-0.504-0.726-0.504-1.278c0-0.552,0.185-0.98,0.552-1.284
			c0.368-0.312,0.856-0.468,1.465-0.468c0.607,0,1.144,0.024,1.606,0.072c0-0.712-0.088-1.198-0.264-1.458
			c-0.176-0.26-0.532-0.39-1.068-0.39s-1.168,0.128-1.896,0.384l-0.181-0.6c0.744-0.272,1.416-0.408,2.017-0.408
			c0.792,0,1.328,0.176,1.607,0.528c0.28,0.352,0.42,0.968,0.42,1.848v2.52l0.097,0.912l-0.612,0.06l-0.12-0.72
			c-0.184,0.16-0.443,0.322-0.78,0.486C626.896,349.82,626.576,349.902,626.271,349.902z M626.284,349.278
			c0.296,0,0.618-0.094,0.966-0.282s0.602-0.362,0.762-0.522v-1.428c-0.527-0.04-1.031-0.06-1.511-0.06s-0.84,0.102-1.08,0.306
			s-0.36,0.478-0.36,0.822C625.061,348.891,625.469,349.278,626.284,349.278z"/>
		<path d="M633.039,349.794v-0.6h1.368v-4.5h-1.368v-0.6h2.003l0.024,0.696c0.256-0.16,0.615-0.32,1.08-0.48
			c0.464-0.16,0.871-0.256,1.224-0.288h0.132v0.708h-0.132c-0.328,0.024-0.734,0.104-1.218,0.24
			c-0.484,0.136-0.847,0.276-1.086,0.42v3.804h1.92v0.6H633.039z"/>
		<path d="M645.36,344.287l-0.145,0.624c-0.496-0.176-0.956-0.264-1.38-0.264c-0.576,0-1.006,0.202-1.29,0.606
			s-0.426,0.966-0.426,1.686s0.144,1.29,0.432,1.71s0.716,0.63,1.284,0.63c0.384,0,0.864-0.104,1.44-0.312l0.191,0.6
			c-0.584,0.224-1.124,0.336-1.62,0.336c-0.783,0-1.384-0.262-1.8-0.786c-0.416-0.523-0.624-1.254-0.624-2.19
			s0.204-1.654,0.612-2.154s1.008-0.75,1.799-0.75C644.34,344.022,644.848,344.11,645.36,344.287z"/>
		<path d="M650.435,345.139v4.656h-0.636v-7.968h0.636v2.7c0.751-0.336,1.372-0.504,1.859-0.504c1.144,0,1.716,0.656,1.716,1.968
			v3.804h-0.636v-3.804c0-0.408-0.088-0.734-0.264-0.978c-0.177-0.244-0.48-0.366-0.912-0.366
			C651.766,344.646,651.178,344.811,650.435,345.139z"/>
		<path d="M658.256,349.794v-0.6h1.752v-4.5h-1.752v-0.6h2.388v5.1h1.751v0.6H658.256z M659.756,342.402
			c0-0.16,0.046-0.284,0.138-0.372c0.093-0.088,0.219-0.132,0.378-0.132c0.328,0,0.492,0.176,0.492,0.528
			c0,0.352-0.164,0.524-0.492,0.516C659.928,342.942,659.756,342.762,659.756,342.402z"/>
		<path d="M666.331,344.851v-0.6h1.164v-1.452l0.636-0.12v1.572h2.748v0.6h-2.748v2.736c0,0.608,0.09,1.046,0.271,1.314
			c0.18,0.268,0.502,0.402,0.966,0.402c0.176,0,0.448-0.03,0.815-0.09c0.368-0.06,0.62-0.114,0.757-0.162l0.144,0.588
			c-0.152,0.056-0.43,0.116-0.834,0.18s-0.698,0.096-0.882,0.096c-0.721,0-1.211-0.19-1.477-0.57
			c-0.264-0.38-0.396-0.958-0.396-1.734v-2.76H666.331z"/>
		<path d="M674.86,346.95c0-0.919,0.189-1.638,0.569-2.154c0.38-0.516,0.935-0.774,1.662-0.774c0.729,0,1.271,0.24,1.625,0.72
			c0.356,0.48,0.534,1.12,0.534,1.92l-0.036,0.6h-3.671c0.04,0.6,0.2,1.086,0.479,1.458s0.666,0.558,1.157,0.558
			c0.492,0,1.07-0.116,1.734-0.348l0.18,0.6c-0.646,0.248-1.255,0.372-1.823,0.372c-0.783,0-1.382-0.262-1.793-0.786
			C675.066,348.593,674.86,347.871,674.86,346.95z M677.14,344.634c-1.007,0-1.54,0.676-1.595,2.028h3.023
			C678.567,345.311,678.092,344.634,677.14,344.634z"/>
		<path d="M683.127,344.851v-0.6h1.164v-1.452l0.635-0.12v1.572h2.748v0.6h-2.748v2.736c0,0.608,0.09,1.046,0.271,1.314
			c0.18,0.268,0.502,0.402,0.967,0.402c0.176,0,0.447-0.03,0.813-0.09c0.369-0.06,0.621-0.114,0.757-0.162l0.145,0.588
			c-0.151,0.056-0.43,0.116-0.834,0.18s-0.697,0.096-0.881,0.096c-0.721,0-1.213-0.19-1.477-0.57
			c-0.265-0.38-0.396-0.958-0.396-1.734v-2.76H683.127z"/>
		<path d="M691.525,344.851v-0.6h1.164v-1.452l0.635-0.12v1.572h2.748v0.6h-2.748v2.736c0,0.608,0.09,1.046,0.27,1.314
			c0.181,0.268,0.502,0.402,0.967,0.402c0.177,0,0.447-0.03,0.814-0.09c0.369-0.06,0.621-0.114,0.756-0.162l0.146,0.588
			c-0.152,0.056-0.431,0.116-0.834,0.18c-0.404,0.064-0.697,0.096-0.881,0.096c-0.722,0-1.214-0.19-1.478-0.57
			c-0.264-0.38-0.395-0.958-0.395-1.734v-2.76H691.525z"/>
		<path d="M703.738,349.794l-0.025-0.492c-0.768,0.4-1.408,0.6-1.92,0.6s-0.914-0.176-1.211-0.528
			c-0.295-0.352-0.443-0.832-0.443-1.44v-3.84h0.636v3.84c0,0.392,0.094,0.714,0.282,0.966s0.474,0.378,0.857,0.378
			c0.383,0,0.984-0.2,1.799-0.6v-4.584h0.637v5.7H703.738L703.738,349.794z"/>
		<path d="M708.619,349.794v-0.6h1.369v-4.5h-1.369v-0.6h2.004l0.023,0.696c0.256-0.16,0.616-0.32,1.08-0.48
			c0.465-0.16,0.87-0.256,1.225-0.288h0.131v0.708h-0.131c-0.328,0.024-0.734,0.104-1.219,0.24c-0.484,0.136-0.847,0.276-1.086,0.42
			v3.804h1.92v0.6H708.619z"/>
		<path d="M716.85,346.95c0-0.919,0.191-1.638,0.57-2.154c0.381-0.516,0.934-0.774,1.662-0.774c0.727,0,1.27,0.24,1.625,0.72
			c0.354,0.48,0.533,1.12,0.533,1.92l-0.035,0.6h-3.672c0.041,0.6,0.201,1.086,0.479,1.458c0.279,0.372,0.666,0.558,1.158,0.558
			s1.07-0.116,1.732-0.348l0.182,0.6c-0.647,0.248-1.256,0.372-1.824,0.372c-0.782,0-1.383-0.262-1.793-0.786
			C717.057,348.593,716.85,347.871,716.85,346.95z M719.129,344.634c-1.008,0-1.539,0.676-1.596,2.028h3.022
			C720.557,345.311,720.082,344.634,719.129,344.634z"/>
		<path d="M733.982,349.794v-0.6h1.836v-6.792l-1.789,0.012l-0.013-0.588l2.437-0.012v7.38h1.896v0.6H733.982z"/>
		<path d="M742.236,349.794v-0.6h1.75v-4.5h-1.75v-0.6h2.387v5.1h1.752v0.6H742.236z M743.734,342.402
			c0-0.16,0.047-0.284,0.139-0.372c0.092-0.088,0.219-0.132,0.379-0.132c0.326,0,0.49,0.176,0.49,0.528
			c0,0.352-0.164,0.524-0.49,0.516C743.906,342.942,743.734,342.762,743.734,342.402z"/>
		<path d="M751.162,344.094l0.022,0.48c0.775-0.368,1.421-0.552,1.933-0.552s0.914,0.176,1.205,0.528
			c0.293,0.352,0.438,0.832,0.438,1.44v3.804h-0.637v-3.804c0-0.392-0.096-0.716-0.287-0.972c-0.192-0.248-0.479-0.372-0.865-0.372
			c-0.383,0-0.979,0.176-1.786,0.528v4.62h-0.636v-5.7L751.162,344.094L751.162,344.094z"/>
		<path d="M759.248,349.05c-0.383-0.496-0.576-1.198-0.576-2.106c0-0.908,0.215-1.622,0.644-2.142c0.428-0.52,1.024-0.78,1.793-0.78
			c0.424,0,0.899,0.14,1.428,0.42l0.022-0.348h0.613v4.32c0.119,0.952,0.18,1.504,0.18,1.656c0,0.704-0.235,1.234-0.709,1.59
			c-0.471,0.355-1.024,0.534-1.659,0.534c-0.638,0-1.357-0.16-2.166-0.48l0.217-0.6c0.791,0.304,1.424,0.456,1.899,0.456
			c0.477,0,0.894-0.124,1.248-0.372c0.355-0.248,0.533-0.62,0.533-1.116l-0.106-0.948c-0.632,0.44-1.199,0.66-1.703,0.66
			C760.184,349.794,759.633,349.546,759.248,349.05z M759.801,345.252c-0.319,0.42-0.479,0.98-0.479,1.68
			c0,0.7,0.141,1.252,0.42,1.656c0.278,0.404,0.672,0.606,1.176,0.606s1.043-0.24,1.619-0.72v-3.36
			c-0.521-0.328-0.988-0.492-1.402-0.492C760.564,344.623,760.119,344.833,759.801,345.252z"/>
		<path d="M770.922,349.794l-0.025-0.492c-0.768,0.4-1.407,0.6-1.92,0.6c-0.512,0-0.914-0.176-1.211-0.528
			c-0.295-0.352-0.442-0.832-0.442-1.44v-3.84h0.635v3.84c0,0.392,0.094,0.714,0.283,0.966c0.188,0.252,0.473,0.378,0.856,0.378
			s0.984-0.2,1.8-0.6v-4.584h0.637v5.7H770.922L770.922,349.794z"/>
		<path d="M777.436,349.902c-0.584,0-1.045-0.15-1.381-0.45c-0.336-0.3-0.504-0.726-0.504-1.278c0-0.552,0.185-0.98,0.553-1.284
			c0.367-0.312,0.855-0.468,1.464-0.468c0.607,0,1.145,0.024,1.606,0.072c0-0.712-0.088-1.198-0.264-1.458
			c-0.176-0.26-0.531-0.39-1.066-0.39c-0.537,0-1.168,0.128-1.896,0.384l-0.181-0.6c0.744-0.272,1.416-0.408,2.017-0.408
			c0.791,0,1.328,0.176,1.606,0.528c0.279,0.352,0.42,0.968,0.42,1.848v2.52l0.097,0.912l-0.611,0.06l-0.121-0.72
			c-0.184,0.16-0.442,0.322-0.778,0.486C778.059,349.82,777.738,349.902,777.436,349.902z M777.447,349.278
			c0.295,0,0.617-0.094,0.965-0.282s0.602-0.362,0.762-0.522v-1.428c-0.526-0.04-1.031-0.06-1.512-0.06
			c-0.479,0-0.84,0.102-1.078,0.306c-0.24,0.204-0.361,0.478-0.361,0.822C776.223,348.891,776.631,349.278,777.447,349.278z"/>
		<path d="M784.441,349.05c-0.384-0.496-0.576-1.198-0.576-2.106c0-0.908,0.215-1.622,0.643-2.142c0.428-0.52,1.025-0.78,1.793-0.78
			c0.424,0,0.9,0.14,1.428,0.42l0.023-0.348h0.613v4.32c0.119,0.952,0.18,1.504,0.18,1.656c0,0.704-0.236,1.234-0.709,1.59
			c-0.471,0.355-1.025,0.534-1.66,0.534c-0.637,0-1.356-0.16-2.166-0.48l0.217-0.6c0.791,0.304,1.425,0.456,1.9,0.456
			c0.477,0,0.893-0.124,1.248-0.372c0.355-0.248,0.533-0.62,0.533-1.116l-0.107-0.948c-0.631,0.44-1.199,0.66-1.703,0.66
			C785.377,349.794,784.826,349.546,784.441,349.05z M784.994,345.252c-0.32,0.42-0.48,0.98-0.48,1.68c0,0.7,0.142,1.252,0.42,1.656
			c0.279,0.404,0.673,0.606,1.177,0.606s1.043-0.24,1.619-0.72v-3.36c-0.521-0.328-0.988-0.492-1.402-0.492
			C785.758,344.623,785.312,344.833,784.994,345.252z"/>
		<path d="M792.84,349.05c-0.383-0.496-0.576-1.198-0.576-2.106c0-0.908,0.216-1.622,0.644-2.142c0.428-0.52,1.024-0.78,1.793-0.78
			c0.424,0,0.899,0.14,1.428,0.42l0.023-0.348h0.612v4.32c0.119,0.952,0.181,1.504,0.181,1.656c0,0.704-0.236,1.234-0.709,1.59
			c-0.472,0.355-1.025,0.534-1.66,0.534c-0.637,0-1.357-0.16-2.166-0.48l0.217-0.6c0.791,0.304,1.424,0.456,1.9,0.456
			c0.476,0,0.893-0.124,1.248-0.372c0.354-0.248,0.532-0.62,0.532-1.116l-0.106-0.948c-0.631,0.44-1.199,0.66-1.703,0.66
			C793.775,349.794,793.225,349.546,792.84,349.05z M793.393,345.252c-0.319,0.42-0.479,0.98-0.479,1.68
			c0,0.7,0.141,1.252,0.42,1.656c0.279,0.404,0.672,0.606,1.176,0.606s1.043-0.24,1.619-0.72v-3.36
			c-0.52-0.328-0.988-0.492-1.401-0.492C794.156,344.623,793.711,344.833,793.393,345.252z"/>
		<path d="M801.021,349.794v-0.6h1.752v-4.5h-1.752v-0.6h2.387v5.1h1.752v0.6H801.021z M802.521,342.402
			c0-0.16,0.045-0.284,0.139-0.372c0.092-0.088,0.217-0.132,0.377-0.132c0.328,0,0.492,0.176,0.492,0.528
			c0,0.352-0.164,0.524-0.492,0.516C802.693,342.942,802.521,342.762,802.521,342.402z"/>
		<path d="M817.457,344.094h0.721l1.572,5.124h0.215l1.512-5.124h0.722l-1.74,5.7h-1.199L817.457,344.094z"/>
		<path d="M826.217,349.794v-0.6h1.75v-4.5h-1.75v-0.6h2.387v5.1h1.753v0.6H826.217z M827.715,342.402
			c0-0.16,0.047-0.284,0.139-0.372c0.093-0.088,0.22-0.132,0.38-0.132c0.325,0,0.489,0.176,0.489,0.528
			c0,0.352-0.164,0.524-0.489,0.516C827.887,342.942,827.715,342.762,827.715,342.402z"/>
		<path d="M834.553,349.519l0.156-0.624c0.793,0.264,1.404,0.396,1.836,0.396s0.766-0.094,1.002-0.282
			c0.236-0.188,0.354-0.438,0.354-0.75s-0.095-0.542-0.281-0.69c-0.188-0.148-0.578-0.29-1.17-0.426
			c-0.592-0.136-1.035-0.332-1.332-0.588c-0.295-0.24-0.443-0.6-0.443-1.08s0.183-0.846,0.545-1.098
			c0.365-0.252,0.834-0.378,1.41-0.378s1.199,0.128,1.871,0.384l-0.168,0.564c-0.68-0.224-1.228-0.336-1.644-0.336
			s-0.743,0.072-0.983,0.216c-0.24,0.16-0.359,0.376-0.359,0.648s0.105,0.484,0.318,0.636c0.211,0.152,0.621,0.304,1.229,0.456
			c0.608,0.152,1.039,0.346,1.298,0.582c0.256,0.236,0.383,0.606,0.383,1.11c0,0.504-0.172,0.904-0.517,1.2
			c-0.336,0.296-0.815,0.444-1.438,0.444C835.992,349.902,835.305,349.774,834.553,349.519z"/>
		<path d="M843.012,349.794v-0.6h1.75v-4.5h-1.75v-0.6h2.388v5.1h1.752v0.6H843.012z M844.51,342.402c0-0.16,0.047-0.284,0.14-0.372
			c0.092-0.088,0.219-0.132,0.379-0.132c0.325,0,0.489,0.176,0.489,0.528c0,0.352-0.164,0.524-0.489,0.516
			C844.682,342.942,844.51,342.762,844.51,342.402z"/>
		<path d="M851.121,346.962c0-1.96,0.764-2.94,2.291-2.94s2.293,0.98,2.293,2.94s-0.766,2.94-2.293,2.94
			S851.121,348.922,851.121,346.962z M853.412,344.646c-1.07,0-1.607,0.772-1.607,2.316s0.537,2.316,1.607,2.316
			c1.072,0,1.606-0.772,1.606-2.316S854.484,344.646,853.412,344.646z"/>
		<path d="M860.336,344.094l0.023,0.48c0.774-0.368,1.42-0.552,1.932-0.552s0.914,0.176,1.205,0.528
			c0.293,0.352,0.439,0.832,0.439,1.44v3.804h-0.638v-3.804c0-0.392-0.096-0.716-0.287-0.972c-0.192-0.248-0.479-0.372-0.864-0.372
			c-0.384,0-0.979,0.176-1.787,0.528v4.62h-0.636v-5.7L860.336,344.094L860.336,344.094z"/>
		<path d="M868.205,349.794v-0.6h1.752v-4.5h-1.752v-0.6h2.387v5.1h1.752v0.6H868.205z M869.705,342.402
			c0-0.16,0.045-0.284,0.139-0.372c0.092-0.088,0.217-0.132,0.377-0.132c0.328,0,0.492,0.176,0.492,0.528
			c0,0.352-0.164,0.524-0.492,0.516C869.877,342.942,869.705,342.762,869.705,342.402z"/>
		<path d="M886.609,349.902c-0.584,0-1.045-0.15-1.381-0.45c-0.337-0.3-0.505-0.726-0.505-1.278c0-0.552,0.185-0.98,0.554-1.284
			c0.366-0.312,0.854-0.468,1.463-0.468c0.607,0,1.145,0.024,1.606,0.072c0-0.712-0.088-1.198-0.264-1.458
			c-0.176-0.26-0.531-0.39-1.066-0.39c-0.536,0-1.168,0.128-1.896,0.384l-0.18-0.6c0.744-0.272,1.416-0.408,2.016-0.408
			c0.791,0,1.328,0.176,1.607,0.528c0.278,0.352,0.42,0.968,0.42,1.848v2.52l0.096,0.912l-0.611,0.06l-0.121-0.72
			c-0.184,0.16-0.442,0.322-0.778,0.486C887.232,349.82,886.912,349.902,886.609,349.902z M886.621,349.278
			c0.295,0,0.617-0.094,0.965-0.282s0.602-0.362,0.762-0.522v-1.428c-0.526-0.04-1.03-0.06-1.512-0.06
			c-0.479,0-0.84,0.102-1.078,0.306c-0.24,0.204-0.361,0.478-0.361,0.822C885.396,348.891,885.805,349.278,886.621,349.278z"/>
		<path d="M901.797,349.794v-0.6h1.752v-4.5h-1.752v-0.6h2.387v5.1h1.752v0.6H901.797z M903.297,342.402
			c0-0.16,0.045-0.284,0.139-0.372c0.093-0.088,0.218-0.132,0.377-0.132c0.328,0,0.492,0.176,0.492,0.528
			c0,0.352-0.164,0.524-0.492,0.516C903.469,342.942,903.297,342.762,903.297,342.402z"/>
		<path d="M910.723,344.094l0.023,0.48c0.775-0.368,1.42-0.552,1.932-0.552c0.513,0,0.914,0.176,1.205,0.528
			c0.293,0.352,0.439,0.832,0.439,1.44v3.804h-0.637v-3.804c0-0.392-0.097-0.716-0.287-0.972c-0.193-0.248-0.48-0.372-0.865-0.372
			c-0.383,0-0.979,0.176-1.787,0.528v4.62h-0.635v-5.7L910.723,344.094L910.723,344.094z"/>
		<path d="M918.232,344.094h0.721l1.572,5.124h0.215l1.512-5.124h0.721l-1.739,5.7h-1.199L918.232,344.094z"/>
		<path d="M928.6,349.902c-0.584,0-1.045-0.15-1.381-0.45c-0.336-0.3-0.504-0.726-0.504-1.278c0-0.552,0.185-0.98,0.553-1.284
			c0.367-0.312,0.855-0.468,1.463-0.468c0.608,0,1.146,0.024,1.607,0.072c0-0.712-0.088-1.198-0.264-1.458
			c-0.176-0.26-0.531-0.39-1.066-0.39c-0.537,0-1.168,0.128-1.896,0.384l-0.181-0.6c0.744-0.272,1.416-0.408,2.017-0.408
			c0.791,0,1.328,0.176,1.606,0.528c0.279,0.352,0.42,0.968,0.42,1.848v2.52l0.097,0.912l-0.611,0.06l-0.121-0.72
			c-0.184,0.16-0.442,0.322-0.779,0.486C929.223,349.82,928.902,349.902,928.6,349.902z M928.611,349.278
			c0.295,0,0.617-0.094,0.965-0.282s0.602-0.362,0.762-0.522v-1.428c-0.526-0.04-1.031-0.06-1.512-0.06
			c-0.479,0-0.84,0.102-1.078,0.306c-0.24,0.204-0.361,0.478-0.361,0.822C927.387,348.891,927.795,349.278,928.611,349.278z"/>
		<path d="M935.365,349.794v-0.6h1.367v-4.5h-1.367v-0.6h2.004l0.022,0.696c0.257-0.16,0.615-0.32,1.08-0.48
			c0.464-0.16,0.871-0.256,1.224-0.288h0.133v0.708h-0.133c-0.328,0.024-0.734,0.104-1.217,0.24
			c-0.484,0.136-0.847,0.276-1.086,0.42v3.804h1.92v0.6H935.365z"/>
		<path d="M943.787,349.794v-0.6h1.75v-4.5h-1.75v-0.6h2.387v5.1h1.752v0.6H943.787z M945.285,342.402
			c0-0.16,0.047-0.284,0.139-0.372c0.092-0.088,0.219-0.132,0.379-0.132c0.326,0,0.49,0.176,0.49,0.528
			c0,0.352-0.164,0.524-0.49,0.516C945.457,342.942,945.285,342.762,945.285,342.402z"/>
		<path d="M953.793,349.902c-0.584,0-1.045-0.15-1.381-0.45c-0.336-0.3-0.504-0.726-0.504-1.278c0-0.552,0.184-0.98,0.553-1.284
			c0.367-0.312,0.855-0.468,1.463-0.468c0.608,0,1.146,0.024,1.607,0.072c0-0.712-0.088-1.198-0.265-1.458
			c-0.176-0.26-0.53-0.39-1.065-0.39c-0.537,0-1.168,0.128-1.896,0.384l-0.18-0.6c0.744-0.272,1.416-0.408,2.016-0.408
			c0.791,0,1.328,0.176,1.607,0.528s0.42,0.968,0.42,1.848v2.52l0.096,0.912l-0.61,0.06l-0.121-0.72
			c-0.185,0.16-0.443,0.322-0.779,0.486C954.416,349.82,954.096,349.902,953.793,349.902z M953.805,349.278
			c0.295,0,0.617-0.094,0.965-0.282c0.349-0.188,0.603-0.362,0.763-0.522v-1.428c-0.527-0.04-1.031-0.06-1.513-0.06
			c-0.479,0-0.84,0.102-1.077,0.306c-0.24,0.204-0.361,0.478-0.361,0.822C952.58,348.891,952.988,349.278,953.805,349.278z"/>
		<path d="M961.111,344.094l0.022,0.48c0.775-0.368,1.42-0.552,1.933-0.552c0.512,0,0.914,0.176,1.205,0.528
			c0.293,0.352,0.438,0.832,0.438,1.44v3.804h-0.637v-3.804c0-0.392-0.097-0.716-0.287-0.972c-0.193-0.248-0.48-0.372-0.865-0.372
			c-0.383,0-0.979,0.176-1.787,0.528v4.62H960.5v-5.7L961.111,344.094L961.111,344.094z"/>
		<path d="M969.029,344.694v-0.6h3.91l0.061,0.492l-3.229,4.608h3.265v0.6h-4.019l-0.098-0.492l3.217-4.608H969.029z"/>
		<path d="M978.986,349.902c-0.584,0-1.045-0.15-1.381-0.45c-0.336-0.3-0.505-0.726-0.505-1.278c0-0.552,0.185-0.98,0.554-1.284
			c0.367-0.312,0.854-0.468,1.463-0.468c0.607,0,1.145,0.024,1.606,0.072c0-0.712-0.088-1.198-0.264-1.458
			c-0.176-0.26-0.531-0.39-1.065-0.39c-0.537,0-1.169,0.128-1.896,0.384l-0.18-0.6c0.744-0.272,1.416-0.408,2.016-0.408
			c0.791,0,1.328,0.176,1.607,0.528c0.278,0.352,0.42,0.968,0.42,1.848v2.52l0.096,0.912l-0.611,0.06l-0.121-0.72
			c-0.184,0.16-0.442,0.322-0.778,0.486C979.609,349.82,979.289,349.902,978.986,349.902z M978.998,349.278
			c0.295,0,0.617-0.094,0.965-0.282s0.603-0.362,0.762-0.522v-1.428c-0.526-0.04-1.03-0.06-1.512-0.06
			c-0.479,0-0.84,0.102-1.078,0.306c-0.24,0.204-0.36,0.478-0.36,0.822C977.773,348.891,978.182,349.278,978.998,349.278z"/>
		<path d="M998.314,341.827v6.972l0.118,1.044l-0.61,0.072l-0.121-0.636c-0.6,0.416-1.15,0.624-1.654,0.624
			c-0.713,0-1.266-0.264-1.662-0.792c-0.396-0.528-0.594-1.246-0.594-2.154s0.221-1.624,0.66-2.148
			c0.438-0.524,1.039-0.786,1.799-0.786c0.449,0,0.924,0.108,1.428,0.324v-2.52H998.314L998.314,341.827z M994.475,346.938
			c0,0.704,0.14,1.27,0.414,1.698c0.275,0.428,0.674,0.642,1.193,0.642c0.519,0,1.053-0.228,1.596-0.684v-3.6
			c-0.168-0.08-0.397-0.158-0.688-0.234c-0.293-0.076-0.529-0.114-0.713-0.114c-0.568,0-1.013,0.206-1.326,0.618
			C994.633,345.677,994.475,346.234,994.475,346.938z"/>
		<path d="M1002.572,349.794v-0.6h1.752v-4.5h-1.752v-0.6h2.387v5.1h1.752v0.6H1002.572z M1004.072,342.402
			c0-0.16,0.045-0.284,0.139-0.372c0.092-0.088,0.217-0.132,0.377-0.132c0.328,0,0.492,0.176,0.492,0.528
			c0,0.352-0.164,0.524-0.492,0.516C1004.244,342.942,1004.072,342.762,1004.072,342.402z"/>
		<path d="M1019.309,349.519l0.156-0.624c0.791,0.264,1.402,0.396,1.836,0.396c0.433,0,0.767-0.094,1-0.282
			c0.236-0.188,0.355-0.438,0.355-0.75s-0.097-0.542-0.283-0.69c-0.188-0.148-0.578-0.29-1.17-0.426
			c-0.592-0.136-1.035-0.332-1.33-0.588c-0.297-0.24-0.445-0.6-0.445-1.08s0.183-0.846,0.547-1.098
			c0.363-0.252,0.834-0.378,1.41-0.378c0.574,0,1.199,0.128,1.871,0.384l-0.168,0.564c-0.68-0.224-1.229-0.336-1.645-0.336
			s-0.744,0.072-0.982,0.216c-0.24,0.16-0.361,0.376-0.361,0.648s0.105,0.484,0.318,0.636c0.211,0.152,0.621,0.304,1.229,0.456
			c0.607,0.152,1.039,0.346,1.295,0.582c0.257,0.236,0.386,0.606,0.386,1.11c0,0.504-0.174,0.904-0.519,1.2
			c-0.336,0.296-0.813,0.444-1.438,0.444C1020.748,349.902,1020.061,349.774,1019.309,349.519z"/>
		<path d="M1031.666,344.287l-0.145,0.624c-0.496-0.176-0.955-0.264-1.38-0.264c-0.575,0-1.006,0.202-1.291,0.606
			c-0.282,0.404-0.426,0.966-0.426,1.686s0.146,1.29,0.435,1.71c0.286,0.42,0.715,0.63,1.282,0.63c0.384,0,0.863-0.104,1.439-0.312
			l0.19,0.6c-0.584,0.224-1.123,0.336-1.619,0.336c-0.782,0-1.385-0.262-1.799-0.786c-0.416-0.523-0.625-1.254-0.625-2.19
			s0.205-1.654,0.611-2.154c0.408-0.5,1.008-0.75,1.801-0.75C1030.646,344.022,1031.154,344.11,1031.666,344.287z"/>
		<path d="M1037.771,349.902c-0.584,0-1.043-0.15-1.38-0.45c-0.336-0.3-0.504-0.726-0.504-1.278c0-0.552,0.185-0.98,0.552-1.284
			c0.368-0.312,0.854-0.468,1.465-0.468c0.606,0,1.143,0.024,1.606,0.072c0-0.712-0.088-1.198-0.264-1.458
			c-0.176-0.26-0.533-0.39-1.068-0.39s-1.168,0.128-1.895,0.384l-0.183-0.6c0.744-0.272,1.416-0.408,2.017-0.408
			c0.793,0,1.328,0.176,1.606,0.528c0.281,0.352,0.42,0.968,0.42,1.848v2.52l0.099,0.912l-0.613,0.06l-0.119-0.72
			c-0.184,0.16-0.442,0.322-0.778,0.486C1038.396,349.82,1038.076,349.902,1037.771,349.902z M1037.783,349.278
			c0.297,0,0.619-0.094,0.967-0.282s0.602-0.362,0.762-0.522v-1.428c-0.526-0.04-1.031-0.06-1.512-0.06s-0.84,0.102-1.08,0.306
			s-0.359,0.478-0.359,0.822C1036.561,348.891,1036.969,349.278,1037.783,349.278z"/>
		<path d="M1044.705,349.794v-0.6h1.836v-6.792l-1.787,0.012l-0.012-0.588l2.436-0.012v7.38h1.896v0.6H1044.705z"/>
		<path d="M1054.568,349.902c-0.584,0-1.045-0.15-1.381-0.45c-0.337-0.3-0.505-0.726-0.505-1.278c0-0.552,0.185-0.98,0.554-1.284
			c0.366-0.312,0.854-0.468,1.463-0.468c0.607,0,1.145,0.024,1.606,0.072c0-0.712-0.088-1.198-0.264-1.458
			c-0.176-0.26-0.531-0.39-1.066-0.39c-0.536,0-1.168,0.128-1.896,0.384l-0.18-0.6c0.743-0.272,1.416-0.408,2.016-0.408
			c0.791,0,1.328,0.176,1.607,0.528c0.278,0.352,0.42,0.968,0.42,1.848v2.52l0.096,0.912l-0.611,0.06l-0.121-0.72
			c-0.184,0.16-0.442,0.322-0.778,0.486C1055.191,349.82,1054.871,349.902,1054.568,349.902z M1054.58,349.278
			c0.295,0,0.617-0.094,0.965-0.282s0.602-0.362,0.762-0.522v-1.428c-0.526-0.04-1.031-0.06-1.512-0.06
			c-0.479,0-0.84,0.102-1.078,0.306c-0.24,0.204-0.361,0.478-0.361,0.822C1053.355,348.891,1053.764,349.278,1054.58,349.278z"/>
	</g>
</g>
<g id="_x31_:1">
	<g>
		<path d="M595.457,388.535l1.208-0.59h0.121v4.193c0,0.277,0.011,0.45,0.035,0.52c0.022,0.068,0.07,0.121,0.145,0.158
			c0.073,0.035,0.222,0.057,0.447,0.062v0.136h-1.867v-0.136c0.234-0.005,0.386-0.024,0.454-0.062
			c0.068-0.034,0.116-0.082,0.143-0.143c0.027-0.061,0.041-0.238,0.041-0.535v-2.682c0-0.361-0.012-0.594-0.037-0.696
			c-0.017-0.077-0.048-0.135-0.093-0.172s-0.1-0.055-0.163-0.055c-0.09,0-0.216,0.038-0.377,0.112L595.457,388.535z"/>
		<path d="M599.565,392.3c0.114,0,0.211,0.04,0.291,0.12c0.078,0.081,0.118,0.178,0.118,0.29s-0.039,0.208-0.12,0.287
			s-0.178,0.119-0.289,0.119c-0.112,0-0.208-0.04-0.288-0.119s-0.119-0.175-0.119-0.287s0.04-0.209,0.119-0.29
			C599.357,392.34,599.453,392.3,599.565,392.3z M599.573,389.557c0.111,0,0.208,0.041,0.287,0.119
			c0.08,0.079,0.118,0.176,0.118,0.287c0,0.112-0.039,0.208-0.118,0.288c-0.079,0.079-0.176,0.118-0.287,0.118
			c-0.112,0-0.208-0.039-0.288-0.118c-0.079-0.08-0.119-0.176-0.119-0.288c0-0.111,0.04-0.208,0.119-0.287
			C599.364,389.598,599.46,389.557,599.573,389.557z"/>
		<path d="M601.663,388.535l1.208-0.59h0.121v4.193c0,0.277,0.011,0.45,0.035,0.52c0.022,0.068,0.07,0.121,0.145,0.158
			c0.073,0.035,0.222,0.057,0.447,0.062v0.136h-1.867v-0.136c0.234-0.005,0.386-0.024,0.454-0.062
			c0.068-0.034,0.116-0.082,0.143-0.143c0.027-0.061,0.041-0.238,0.041-0.535v-2.682c0-0.361-0.012-0.594-0.036-0.696
			c-0.018-0.077-0.049-0.135-0.094-0.172s-0.1-0.055-0.163-0.055c-0.09,0-0.216,0.038-0.377,0.112L601.663,388.535z"/>
	</g>
</g>
<g id="_x31_:n">
	<g>
		<path d="M624.473,303.184l1.208-0.59h0.121v4.193c0,0.278,0.011,0.452,0.035,0.52c0.023,0.069,0.071,0.121,0.146,0.158
			c0.073,0.037,0.222,0.058,0.446,0.062v0.136h-1.866v-0.136c0.233-0.004,0.386-0.025,0.453-0.06
			c0.068-0.036,0.116-0.083,0.144-0.143c0.026-0.06,0.041-0.238,0.041-0.536v-2.681c0-0.361-0.013-0.594-0.037-0.696
			c-0.017-0.078-0.048-0.135-0.093-0.172c-0.045-0.037-0.101-0.055-0.163-0.055c-0.09,0-0.216,0.038-0.377,0.113L624.473,303.184z"
			/>
		<path d="M628.582,306.948c0.115,0,0.211,0.04,0.291,0.121c0.079,0.081,0.119,0.177,0.119,0.29c0,0.113-0.04,0.208-0.121,0.287
			c-0.081,0.08-0.177,0.119-0.289,0.119s-0.208-0.04-0.288-0.119c-0.079-0.079-0.119-0.175-0.119-0.287
			c0-0.112,0.04-0.209,0.119-0.29S628.469,306.948,628.582,306.948z M628.589,304.205c0.112,0,0.208,0.04,0.287,0.119
			c0.08,0.079,0.119,0.175,0.119,0.287c0,0.113-0.04,0.208-0.119,0.288s-0.175,0.119-0.287,0.119s-0.208-0.04-0.288-0.119
			c-0.079-0.079-0.119-0.175-0.119-0.288c0-0.112,0.04-0.208,0.119-0.287C628.38,304.245,628.477,304.205,628.589,304.205z"/>
		<path d="M631.013,304.919c0.394-0.473,0.768-0.71,1.124-0.71c0.184,0,0.34,0.045,0.473,0.137c0.132,0.091,0.236,0.242,0.314,0.452
			c0.055,0.146,0.081,0.371,0.081,0.674v1.432c0,0.212,0.018,0.356,0.051,0.432c0.027,0.062,0.07,0.109,0.13,0.143
			c0.061,0.034,0.171,0.051,0.331,0.051v0.132h-1.657v-0.132h0.069c0.156,0,0.266-0.024,0.328-0.071
			c0.062-0.048,0.105-0.118,0.13-0.211c0.011-0.036,0.016-0.151,0.016-0.344v-1.374c0-0.305-0.04-0.527-0.119-0.665
			c-0.079-0.138-0.213-0.207-0.401-0.207c-0.291,0-0.58,0.159-0.867,0.476v1.769c0,0.227,0.014,0.367,0.04,0.421
			c0.034,0.071,0.081,0.123,0.142,0.156c0.06,0.033,0.181,0.049,0.363,0.049v0.132h-1.658v-0.132h0.072
			c0.171,0,0.286-0.043,0.347-0.13c0.06-0.087,0.09-0.252,0.09-0.496v-1.245c0-0.403-0.009-0.648-0.028-0.736
			c-0.018-0.088-0.046-0.147-0.084-0.18c-0.038-0.031-0.088-0.047-0.151-0.047c-0.068,0-0.15,0.018-0.246,0.055l-0.056-0.132
			l1.011-0.41h0.157V304.919L631.013,304.919z"/>
	</g>
</g>
<g id="GAME">
	<g>
		<path d="M467.328,323.29c-2.663,0-4.76-0.938-6.293-2.813c-1.534-1.875-2.069-4.123-1.607-6.744l3.854-21.86
			c0.47-2.664,1.806-4.927,4.009-6.792s4.625-2.796,7.267-2.796c2.662,0,4.755,0.938,6.276,2.812
			c1.523,1.875,2.05,4.134,1.584,6.776l-0.806,4.57h-6.263l0.829-4.698c0.169-0.959-0.026-1.779-0.589-2.461
			c-0.562-0.682-1.319-1.023-2.278-1.023c-0.958,0-1.833,0.341-2.624,1.023s-1.271,1.502-1.44,2.461l-3.866,21.924
			c-0.169,0.959,0.023,1.773,0.576,2.445c0.553,0.671,1.308,1.007,2.266,1.007c0.959,0,1.838-0.334,2.638-1.004
			s1.284-1.482,1.453-2.438l1.388-7.872h-3.354l1.071-6.073h9.616l-2.468,13.998c-0.471,2.664-1.806,4.922-4.006,6.776
			C472.358,322.363,469.947,323.29,467.328,323.29z"/>
		<path d="M491.625,313.574l-3.09,9.205h-6.288l13.867-40.046h8.306l-0.352,40.046h-6.35l0.21-9.205H491.625z M498.618,291.905
			l-5.021,15.788h4.474L498.618,291.905z"/>
		<path d="M515.383,322.778h-6.038l7.067-40.078h8.665l0.551,28.79l10.479-28.79h8.323l-7.066,40.078h-6.038l4.44-25.185
			l-9.68,25.185h-4.855l-1.418-25.12L515.383,322.778z"/>
		<path d="M542.641,322.778l7.067-40.078h17.188l-1.071,6.072h-11.15l-1.927,10.93h8.146l-1.07,6.073h-8.147l-1.927,10.931h11.15
			l-1.071,6.072H542.641L542.641,322.778z"/>
	</g>
</g>
<g id="S_T_U_D_I_O__D_I_P_R_O_G_E_T_T_A_Z_I_O_N_E_1_">
	<g id="S_T_U_D_I_O__D_I_P_R_O_G_E_T_T_A_Z_I_O_N_E">
		<path stroke="#000000" stroke-width="0.25" stroke-miterlimit="10" d="M451.128,375.014c-0.716-0.172-1.24-0.424-1.571-0.756
			c-0.332-0.332-0.498-0.814-0.498-1.446s0.219-1.124,0.653-1.476c0.437-0.352,0.998-0.528,1.687-0.528
			c0.688,0,1.387,0.124,2.099,0.372l-0.168,0.612c-0.664-0.24-1.273-0.36-1.829-0.36s-0.982,0.118-1.277,0.354
			c-0.296,0.236-0.443,0.578-0.443,1.026c0,0.448,0.12,0.788,0.359,1.02c0.24,0.232,0.718,0.442,1.434,0.63s1.232,0.437,1.554,0.744
			c0.319,0.308,0.479,0.804,0.479,1.488s-0.23,1.224-0.689,1.62c-0.46,0.396-1.054,0.594-1.781,0.594
			c-0.544,0-1.231-0.116-2.062-0.348l0.155-0.612c0.815,0.224,1.472,0.336,1.968,0.336s0.903-0.138,1.224-0.414
			c0.32-0.276,0.48-0.662,0.48-1.158s-0.116-0.86-0.349-1.092C452.319,375.388,451.844,375.186,451.128,375.014z"/>
		<path stroke="#000000" stroke-width="0.25" stroke-miterlimit="10" d="M463.981,371.54v-0.612h4.821v0.612h-2.087v7.248h-0.66
			v-7.248H463.981z"/>
		<path stroke="#000000" stroke-width="0.25" stroke-miterlimit="10" d="M479.048,376.52v-5.592h0.66v5.508
			c0,1.232,0.563,1.848,1.691,1.848c0.566,0,0.99-0.17,1.271-0.51s0.419-0.786,0.419-1.338v-5.508h0.66v5.592
			c0,0.776-0.202,1.368-0.606,1.776c-0.403,0.408-0.993,0.612-1.77,0.612c-0.775,0-1.357-0.212-1.745-0.636
			C479.241,377.848,479.048,377.264,479.048,376.52z"/>
		<path stroke="#000000" stroke-width="0.25" stroke-miterlimit="10" d="M494.114,378.788v-7.86h1.606
			c0.593,0,1.078,0.058,1.458,0.174c0.379,0.116,0.702,0.322,0.965,0.618c0.265,0.296,0.454,0.698,0.57,1.206
			c0.116,0.508,0.174,1.152,0.174,1.932c0,0.78-0.063,1.428-0.191,1.944c-0.128,0.516-0.332,0.918-0.612,1.206
			c-0.28,0.288-0.607,0.49-0.983,0.606c-0.376,0.116-0.844,0.174-1.402,0.174H494.114L494.114,378.788z M497.13,377.924
			c0.34-0.176,0.601-0.506,0.78-0.99s0.27-1.176,0.27-2.076s-0.088-1.592-0.264-2.076c-0.176-0.484-0.432-0.814-0.768-0.99
			c-0.337-0.176-0.812-0.264-1.428-0.264h-0.947v6.66h0.924C496.312,378.188,496.791,378.1,497.13,377.924z"/>
		<path stroke="#000000" stroke-width="0.25" stroke-miterlimit="10" d="M509.72,378.788v-0.6h1.355v-6.66h-1.355v-0.6h3.348v0.6
			h-1.332v6.66h1.332v0.6H509.72z"/>
		<path stroke="#000000" stroke-width="0.25" stroke-miterlimit="10" d="M523.862,374.78c0-0.624,0.04-1.164,0.12-1.62
			s0.208-0.868,0.384-1.236c0.359-0.744,1.032-1.116,2.016-1.116c1.119,0.008,1.855,0.532,2.207,1.572
			c0.208,0.6,0.312,1.306,0.312,2.118s-0.041,1.458-0.12,1.938c-0.08,0.48-0.208,0.912-0.385,1.296
			c-0.367,0.784-1.039,1.176-2.015,1.176c-0.96,0-1.627-0.392-2.003-1.176C524.034,377.02,523.862,376.036,523.862,374.78z
			 M528.192,374.876c0-0.432-0.011-0.78-0.03-1.044c-0.021-0.264-0.066-0.556-0.138-0.876c-0.072-0.32-0.171-0.584-0.294-0.792
			c-0.125-0.208-0.301-0.382-0.528-0.522c-0.229-0.14-0.502-0.21-0.821-0.21c-0.32,0-0.594,0.07-0.822,0.21
			c-0.228,0.14-0.403,0.314-0.527,0.522s-0.223,0.472-0.294,0.792c-0.112,0.496-0.168,1.046-0.168,1.65s0.021,1.092,0.065,1.464
			c0.044,0.372,0.126,0.738,0.246,1.098c0.248,0.744,0.748,1.116,1.5,1.116c0.768,0,1.271-0.376,1.511-1.128
			C528.1,376.516,528.2,375.756,528.192,374.876z"/>
		<path stroke="#000000" stroke-width="0.25" stroke-miterlimit="10" d="M546.593,378.788v-7.86h1.607
			c0.592,0,1.078,0.058,1.458,0.174c0.379,0.116,0.702,0.322,0.965,0.618c0.264,0.296,0.454,0.698,0.57,1.206
			c0.115,0.508,0.174,1.152,0.174,1.932c0,0.78-0.064,1.428-0.192,1.944c-0.128,0.516-0.332,0.918-0.611,1.206
			c-0.28,0.288-0.607,0.49-0.983,0.606c-0.376,0.116-0.844,0.174-1.403,0.174H546.593L546.593,378.788z M549.609,377.924
			c0.34-0.176,0.6-0.506,0.779-0.99c0.181-0.484,0.271-1.176,0.271-2.076s-0.088-1.592-0.264-2.076
			c-0.177-0.484-0.433-0.814-0.769-0.99c-0.336-0.176-0.812-0.264-1.427-0.264h-0.948v6.66h0.924
			C548.792,378.188,549.27,378.1,549.609,377.924z"/>
		<path stroke="#000000" stroke-width="0.25" stroke-miterlimit="10" d="M562.199,378.788v-0.6h1.354v-6.66h-1.354v-0.6h3.347v0.6
			h-1.332v6.66h1.332v0.6H562.199z"/>
		<path stroke="#000000" stroke-width="0.25" stroke-miterlimit="10" d="M383.529,390.309h-1.104v2.879h-0.66v-7.858h1.764
			c0.96,0,1.669,0.182,2.129,0.546c0.459,0.363,0.688,0.993,0.688,1.891c0,0.896-0.231,1.545-0.694,1.942
			C385.188,390.107,384.48,390.309,383.529,390.309z M383.529,385.928h-1.104v3.779h1.104c0.735,0,1.272-0.146,1.612-0.443
			c0.341-0.295,0.511-0.791,0.511-1.488c0-0.694-0.168-1.178-0.504-1.444S384.272,385.928,383.529,385.928z"/>
		<path stroke="#000000" stroke-width="0.25" stroke-miterlimit="10" d="M399.147,389.961c-0.433,0.023-0.713,0.035-0.841,0.035
			h-0.982v3.191h-0.66v-7.859h1.763c0.977,0,1.691,0.168,2.147,0.504s0.684,0.928,0.684,1.775c0,0.567-0.114,1.024-0.342,1.369
			c-0.229,0.344-0.594,0.623-1.098,0.84c0.544,1.031,1.04,2.156,1.487,3.371h-0.72C400.146,392.02,399.667,390.943,399.147,389.961z
			 M398.403,385.928h-1.08v3.469h0.959c0.735,0,1.299-0.135,1.69-0.401c0.393-0.269,0.589-0.729,0.589-1.388
			c0-0.656-0.175-1.1-0.522-1.332C399.691,386.044,399.147,385.928,398.403,385.928z"/>
		<path stroke="#000000" stroke-width="0.25" stroke-miterlimit="10" d="M411.406,389.18c0-0.623,0.04-1.164,0.12-1.619
			c0.08-0.457,0.208-0.869,0.384-1.235c0.359-0.744,1.032-1.116,2.016-1.116c1.119,0.008,1.855,0.532,2.207,1.571
			c0.208,0.602,0.312,1.307,0.312,2.118c0,0.812-0.041,1.457-0.12,1.938c-0.08,0.479-0.208,0.912-0.384,1.297
			c-0.368,0.783-1.04,1.177-2.016,1.177c-0.96,0-1.627-0.394-2.003-1.177C411.578,391.42,411.406,390.436,411.406,389.18z
			 M415.736,389.275c0-0.433-0.011-0.779-0.03-1.043c-0.021-0.265-0.066-0.558-0.138-0.877c-0.072-0.32-0.17-0.584-0.294-0.791
			c-0.124-0.209-0.301-0.383-0.528-0.523c-0.229-0.139-0.502-0.209-0.821-0.209c-0.32,0-0.594,0.07-0.822,0.209
			c-0.228,0.141-0.403,0.314-0.527,0.523c-0.124,0.207-0.223,0.471-0.294,0.791c-0.112,0.496-0.168,1.047-0.168,1.649
			s0.021,1.093,0.065,1.465c0.044,0.371,0.126,0.736,0.246,1.099c0.248,0.744,0.748,1.115,1.5,1.115
			c0.769,0,1.271-0.375,1.511-1.127C415.645,390.916,415.744,390.156,415.736,389.275z"/>
		<path stroke="#000000" stroke-width="0.25" stroke-miterlimit="10" d="M427.048,392.348c-0.448-0.639-0.671-1.67-0.671-3.09
			s0.22-2.449,0.66-3.09c0.438-0.641,1.155-0.96,2.146-0.96c0.648,0,1.327,0.128,2.039,0.384l-0.168,0.611
			c-0.728-0.248-1.352-0.371-1.871-0.371c-0.752,0-1.29,0.266-1.612,0.799c-0.324,0.531-0.486,1.398-0.486,2.604
			c0,1.203,0.168,2.08,0.504,2.627c0.336,0.55,0.843,0.822,1.523,0.822c0.407,0,0.898-0.096,1.475-0.287v-2.399h-1.354v-0.588h2.015
			v3.455c-0.824,0.297-1.535,0.444-2.135,0.444C428.184,393.309,427.496,392.988,427.048,392.348z"/>
		<path stroke="#000000" stroke-width="0.25" stroke-miterlimit="10" d="M441.898,393.188v-7.858h4.091v0.588h-3.432v2.978h3.106
			v0.588h-3.106v3.119h3.467v0.588h-4.126V393.188z"/>
		<path stroke="#000000" stroke-width="0.25" stroke-miterlimit="10" d="M456.484,385.939v-0.611h4.821v0.611h-2.087v7.248h-0.66
			v-7.248H456.484z"/>
		<path stroke="#000000" stroke-width="0.25" stroke-miterlimit="10" d="M471.478,385.939v-0.611h4.822v0.611h-2.087v7.248h-0.66
			v-7.248H471.478z"/>
		<path stroke="#000000" stroke-width="0.25" stroke-miterlimit="10" d="M486.101,393.188l2.256-7.858h1.15l2.171,7.858h-0.708
			l-0.492-1.811H487.3l-0.504,1.811H486.101z M490.323,390.775l-1.295-4.849h-0.204l-1.355,4.849H490.323z"/>
		<path stroke="#000000" stroke-width="0.25" stroke-miterlimit="10" d="M501.73,385.928v-0.6h4.233l0.072,0.504l-3.527,6.756h3.731
			v0.6h-4.426l-0.084-0.479l3.525-6.778h-3.525V385.928z"/>
		<path stroke="#000000" stroke-width="0.25" stroke-miterlimit="10" d="M517.216,393.188v-0.6h1.355v-6.66h-1.355v-0.6h3.347v0.6
			h-1.331v6.66h1.331v0.6H517.216z"/>
		<path stroke="#000000" stroke-width="0.25" stroke-miterlimit="10" d="M531.359,389.18c0-0.623,0.04-1.164,0.119-1.619
			c0.08-0.457,0.209-0.869,0.385-1.235c0.359-0.744,1.031-1.116,2.016-1.116c1.119,0.008,1.855,0.532,2.207,1.571
			c0.208,0.602,0.312,1.307,0.312,2.118c0,0.812-0.041,1.457-0.12,1.938c-0.08,0.479-0.208,0.912-0.385,1.297
			c-0.367,0.783-1.04,1.177-2.015,1.177c-0.96,0-1.627-0.394-2.003-1.177C531.531,391.42,531.359,390.436,531.359,389.18z
			 M535.689,389.275c0-0.433-0.011-0.779-0.03-1.043c-0.021-0.265-0.066-0.558-0.138-0.877c-0.072-0.32-0.171-0.584-0.295-0.791
			c-0.124-0.209-0.3-0.383-0.527-0.523c-0.229-0.139-0.502-0.209-0.821-0.209c-0.32,0-0.594,0.07-0.822,0.209
			c-0.228,0.141-0.403,0.314-0.527,0.523c-0.124,0.207-0.223,0.471-0.294,0.791c-0.112,0.496-0.168,1.047-0.168,1.649
			s0.021,1.093,0.065,1.465c0.044,0.371,0.126,0.736,0.246,1.099c0.248,0.744,0.748,1.115,1.5,1.115
			c0.768,0,1.271-0.375,1.511-1.127C535.597,390.916,535.697,390.156,535.689,389.275z"/>
		<path stroke="#000000" stroke-width="0.25" stroke-miterlimit="10" d="M550.599,393.188v-1.235l-3.418-5.375h-0.036v6.61h-0.659
			v-7.858h0.646l3.431,5.437h0.036v-5.437h0.66v7.858H550.599z"/>
		<path stroke="#000000" stroke-width="0.25" stroke-miterlimit="10" d="M561.851,393.188v-7.858h4.092v0.588h-3.432v2.978h3.106
			v0.588h-3.106v3.119h3.466v0.588h-4.126V393.188z"/>
	</g>
</g>
</svg>
