<?xml version="1.0" encoding="utf-8"?>
<svg version="1.1" id="Livello_1" xmlns="http://www.w3.org/2000/svg" xmlns:xlink="http://www.w3.org/1999/xlink" x="0px" y="0px"
	 viewBox="0 0 360 640" style="enable-background:new 0 0 360 640;" xml:space="preserve">
<style type="text/css">
	.st0{stroke:#000000;stroke-width:0.25;stroke-miterlimit:10;}
</style>
<g>
	<g>
		<path d="M62.4,161.4l11.2-52.7c5.5-23.8,13-36,22.7-36.4c3.3,0,4.8,1.5,4.2,4.4c-0.4,2.1-1.6,3.1-3.7,3.1c-1.3,0-2.4-0.8-3.3-2.5
			c-0.7-0.8-1.2-1.3-1.7-1.3c-3.1-1.3-7.3,9.4-12.5,32l-11.4,54c-7.1,35.5-15.7,52.5-25.9,50.8c-2.9,0-4.1-1.5-3.6-4.4
			c0.4-2.1,1.6-3.1,3.7-3.1c1.3,0,2.4,0.8,3.3,2.5c0.3,0.8,0.6,1.3,1,1.3C50.3,211.2,55.6,195.3,62.4,161.4z"/>
	</g>
	<g id="architetture_linguaggi_visioni_a_invarianza_di_scala">
		<path d="M134.2,169.6c-0.6,0-1-0.1-1.4-0.4s-0.5-0.7-0.5-1.3s0.2-1,0.6-1.3c0.4-0.3,0.9-0.5,1.5-0.5s1.1,0,1.6,0.1
			c0-0.7-0.1-1.2-0.3-1.5c-0.2-0.3-0.5-0.4-1.1-0.4s-1.2,0.1-1.9,0.4l-0.2-0.6c0.7-0.3,1.4-0.4,2-0.4c0.8,0,1.3,0.2,1.6,0.5
			s0.4,1,0.4,1.8v2.5l0.1,0.9l-0.6,0.1l-0.1-0.7c-0.2,0.2-0.4,0.3-0.8,0.5C134.9,169.5,134.6,169.6,134.2,169.6z M134.3,169
			c0.3,0,0.6-0.1,1-0.3s0.6-0.4,0.8-0.5v-1.4c-0.5,0-1-0.1-1.5-0.1c-0.5,0-0.8,0.1-1.1,0.3s-0.4,0.5-0.4,0.8
			C133,168.6,133.4,169,134.3,169z"/>
		<path d="M141,169.5v-0.6h1.4v-4.5H141v-0.6h2l0,0.7c0.3-0.2,0.6-0.3,1.1-0.5s0.9-0.3,1.2-0.3h0.1v0.7h-0.1c-0.3,0-0.7,0.1-1.2,0.2
			c-0.5,0.1-0.8,0.3-1.1,0.4v3.8h1.9v0.6H141z"/>
		<path d="M153.3,164l-0.1,0.6c-0.5-0.2-1-0.3-1.4-0.3c-0.6,0-1,0.2-1.3,0.6s-0.4,1-0.4,1.7s0.1,1.3,0.4,1.7
			c0.3,0.4,0.7,0.6,1.3,0.6c0.4,0,0.9-0.1,1.4-0.3l0.2,0.6c-0.6,0.2-1.1,0.3-1.6,0.3c-0.8,0-1.4-0.3-1.8-0.8
			c-0.4-0.5-0.6-1.3-0.6-2.2s0.2-1.7,0.6-2.2s1-0.8,1.8-0.8C152.3,163.7,152.8,163.8,153.3,164z"/>
		<path d="M158.4,164.9v4.7h-0.6v-8h0.6v2.7c0.8-0.3,1.4-0.5,1.9-0.5c1.1,0,1.7,0.7,1.7,2v3.8h-0.6v-3.8c0-0.4-0.1-0.7-0.3-1
			c-0.2-0.2-0.5-0.4-0.9-0.4C159.7,164.4,159.2,164.5,158.4,164.9z"/>
		<path d="M166.2,169.5v-0.6h1.8v-4.5h-1.8v-0.6h2.4v5.1h1.8v0.6H166.2z M167.7,162.1c0-0.2,0-0.3,0.1-0.4c0.1-0.1,0.2-0.1,0.4-0.1
			c0.3,0,0.5,0.2,0.5,0.5s-0.2,0.5-0.5,0.5C167.9,162.7,167.7,162.5,167.7,162.1z"/>
		<path d="M174.3,164.6V164h1.2v-1.5l0.6-0.1v1.6h2.7v0.6h-2.7v2.7c0,0.6,0.1,1,0.3,1.3s0.5,0.4,1,0.4c0.2,0,0.4,0,0.8-0.1
			c0.4-0.1,0.6-0.1,0.8-0.2l0.1,0.6c-0.2,0.1-0.4,0.1-0.8,0.2s-0.7,0.1-0.9,0.1c-0.7,0-1.2-0.2-1.5-0.6c-0.3-0.4-0.4-1-0.4-1.7v-2.8
			H174.3z"/>
		<path d="M182.8,166.7c0-0.9,0.2-1.6,0.6-2.2c0.4-0.5,0.9-0.8,1.7-0.8c0.7,0,1.3,0.2,1.6,0.7c0.4,0.5,0.5,1.1,0.5,1.9l0,0.6h-3.7
			c0,0.6,0.2,1.1,0.5,1.5c0.3,0.4,0.7,0.6,1.2,0.6c0.5,0,1.1-0.1,1.7-0.3l0.2,0.6c-0.6,0.2-1.3,0.4-1.8,0.4c-0.8,0-1.4-0.3-1.8-0.8
			C183,168.3,182.8,167.6,182.8,166.7z M185.1,164.3c-1,0-1.5,0.7-1.6,2h3C186.5,165,186.1,164.3,185.1,164.3z"/>
		<path d="M191.1,164.6V164h1.2v-1.5l0.6-0.1v1.6h2.7v0.6h-2.7v2.7c0,0.6,0.1,1,0.3,1.3s0.5,0.4,1,0.4c0.2,0,0.4,0,0.8-0.1
			s0.6-0.1,0.8-0.2l0.1,0.6c-0.2,0.1-0.4,0.1-0.8,0.2s-0.7,0.1-0.9,0.1c-0.7,0-1.2-0.2-1.5-0.6s-0.4-1-0.4-1.7v-2.8H191.1z"/>
		<path d="M199.5,164.6V164h1.2v-1.5l0.6-0.1v1.6h2.7v0.6h-2.7v2.7c0,0.6,0.1,1,0.3,1.3s0.5,0.4,1,0.4c0.2,0,0.4,0,0.8-0.1
			s0.6-0.1,0.8-0.2l0.1,0.6c-0.2,0.1-0.4,0.1-0.8,0.2s-0.7,0.1-0.9,0.1c-0.7,0-1.2-0.2-1.5-0.6s-0.4-1-0.4-1.7v-2.8H199.5z"/>
		<path d="M211.7,169.5l0-0.5c-0.8,0.4-1.4,0.6-1.9,0.6s-0.9-0.2-1.2-0.5c-0.3-0.4-0.4-0.8-0.4-1.4v-3.8h0.6v3.8
			c0,0.4,0.1,0.7,0.3,1c0.2,0.3,0.5,0.4,0.9,0.4c0.4,0,1-0.2,1.8-0.6v-4.6h0.6v5.7H211.7z"/>
		<path d="M216.6,169.5v-0.6h1.4v-4.5h-1.4v-0.6h2l0,0.7c0.3-0.2,0.6-0.3,1.1-0.5c0.5-0.2,0.9-0.3,1.2-0.3h0.1v0.7h-0.1
			c-0.3,0-0.7,0.1-1.2,0.2c-0.5,0.1-0.8,0.3-1.1,0.4v3.8h1.9v0.6H216.6z"/>
		<path d="M224.8,166.7c0-0.9,0.2-1.6,0.6-2.2c0.4-0.5,0.9-0.8,1.7-0.8c0.7,0,1.3,0.2,1.6,0.7c0.4,0.5,0.5,1.1,0.5,1.9l0,0.6h-3.7
			c0,0.6,0.2,1.1,0.5,1.5c0.3,0.4,0.7,0.6,1.2,0.6c0.5,0,1.1-0.1,1.7-0.3l0.2,0.6c-0.6,0.2-1.3,0.4-1.8,0.4c-0.8,0-1.4-0.3-1.8-0.8
			C225,168.3,224.8,167.6,224.8,166.7z M227.1,164.3c-1,0-1.5,0.7-1.6,2h3C228.5,165,228.1,164.3,227.1,164.3z"/>
		<path d="M132.8,183.9v-0.6h1.8v-6.8l-1.8,0l0-0.6l2.4,0v7.4h1.9v0.6L132.8,183.9L132.8,183.9z"/>
		<path d="M141,183.9v-0.6h1.8v-4.5H141v-0.6h2.4v5.1h1.8v0.6H141z M142.5,176.5c0-0.2,0-0.3,0.1-0.4s0.2-0.1,0.4-0.1
			c0.3,0,0.5,0.2,0.5,0.5s-0.2,0.5-0.5,0.5C142.7,177.1,142.5,176.9,142.5,176.5z"/>
		<path d="M150,178.2l0,0.5c0.8-0.4,1.4-0.6,1.9-0.6s0.9,0.2,1.2,0.5c0.3,0.4,0.4,0.8,0.4,1.4v3.8h-0.6v-3.8c0-0.4-0.1-0.7-0.3-1
			c-0.2-0.2-0.5-0.4-0.9-0.4s-1,0.2-1.8,0.5v4.6h-0.6v-5.7H150z"/>
		<path d="M158.1,183.2c-0.4-0.5-0.6-1.2-0.6-2.1s0.2-1.6,0.6-2.1s1-0.8,1.8-0.8c0.4,0,0.9,0.1,1.4,0.4l0-0.3h0.6v4.3
			c0.1,1,0.2,1.5,0.2,1.7c0,0.7-0.2,1.2-0.7,1.6c-0.5,0.4-1,0.5-1.7,0.5s-1.4-0.2-2.2-0.5l0.2-0.6c0.8,0.3,1.4,0.5,1.9,0.5
			s0.9-0.1,1.2-0.4s0.5-0.6,0.5-1.1l-0.1-0.9c-0.6,0.4-1.2,0.7-1.7,0.7C159,183.9,158.4,183.7,158.1,183.2z M158.6,179.4
			c-0.3,0.4-0.5,1-0.5,1.7s0.1,1.3,0.4,1.7s0.7,0.6,1.2,0.6s1-0.2,1.6-0.7v-3.4c-0.5-0.3-1-0.5-1.4-0.5
			C159.4,178.7,158.9,178.9,158.6,179.4z"/>
		<path d="M169.7,183.9l0-0.5c-0.8,0.4-1.4,0.6-1.9,0.6s-0.9-0.2-1.2-0.5c-0.3-0.4-0.4-0.8-0.4-1.4v-3.8h0.6v3.8
			c0,0.4,0.1,0.7,0.3,1s0.5,0.4,0.9,0.4c0.4,0,1-0.2,1.8-0.6v-4.6h0.6v5.7H169.7z"/>
		<path d="M176.2,184c-0.6,0-1-0.1-1.4-0.4s-0.5-0.7-0.5-1.3s0.2-1,0.6-1.3c0.4-0.3,0.9-0.5,1.5-0.5c0.6,0,1.1,0,1.6,0.1
			c0-0.7-0.1-1.2-0.3-1.5c-0.2-0.3-0.5-0.4-1.1-0.4c-0.5,0-1.2,0.1-1.9,0.4l-0.2-0.6c0.7-0.3,1.4-0.4,2-0.4c0.8,0,1.3,0.2,1.6,0.5
			c0.3,0.4,0.4,1,0.4,1.8v2.5l0.1,0.9l-0.6,0.1l-0.1-0.7c-0.2,0.2-0.4,0.3-0.8,0.5C176.9,183.9,176.5,184,176.2,184z M176.3,183.4
			c0.3,0,0.6-0.1,1-0.3s0.6-0.4,0.8-0.5v-1.4c-0.5,0-1-0.1-1.5-0.1c-0.5,0-0.8,0.1-1.1,0.3c-0.2,0.2-0.4,0.5-0.4,0.8
			C175,183,175.4,183.4,176.3,183.4z"/>
		<path d="M183.2,183.2c-0.4-0.5-0.6-1.2-0.6-2.1s0.2-1.6,0.6-2.1c0.4-0.5,1-0.8,1.8-0.8c0.4,0,0.9,0.1,1.4,0.4l0-0.3h0.6v4.3
			c0.1,1,0.2,1.5,0.2,1.7c0,0.7-0.2,1.2-0.7,1.6c-0.5,0.4-1,0.5-1.7,0.5c-0.6,0-1.4-0.2-2.2-0.5l0.2-0.6c0.8,0.3,1.4,0.5,1.9,0.5
			c0.5,0,0.9-0.1,1.2-0.4c0.4-0.2,0.5-0.6,0.5-1.1l-0.1-0.9c-0.6,0.4-1.2,0.7-1.7,0.7C184.2,183.9,183.6,183.7,183.2,183.2z
			 M183.8,179.4c-0.3,0.4-0.5,1-0.5,1.7s0.1,1.3,0.4,1.7c0.3,0.4,0.7,0.6,1.2,0.6s1-0.2,1.6-0.7v-3.4c-0.5-0.3-1-0.5-1.4-0.5
			C184.6,178.7,184.1,178.9,183.8,179.4z"/>
		<path d="M191.6,183.2c-0.4-0.5-0.6-1.2-0.6-2.1s0.2-1.6,0.6-2.1c0.4-0.5,1-0.8,1.8-0.8c0.4,0,0.9,0.1,1.4,0.4l0-0.3h0.6v4.3
			c0.1,1,0.2,1.5,0.2,1.7c0,0.7-0.2,1.2-0.7,1.6c-0.5,0.4-1,0.5-1.7,0.5c-0.6,0-1.4-0.2-2.2-0.5l0.2-0.6c0.8,0.3,1.4,0.5,1.9,0.5
			c0.5,0,0.9-0.1,1.2-0.4c0.4-0.2,0.5-0.6,0.5-1.1l-0.1-0.9c-0.6,0.4-1.2,0.7-1.7,0.7C192.6,183.9,192,183.7,191.6,183.2z
			 M192.2,179.4c-0.3,0.4-0.5,1-0.5,1.7s0.1,1.3,0.4,1.7c0.3,0.4,0.7,0.6,1.2,0.6s1-0.2,1.6-0.7v-3.4c-0.5-0.3-1-0.5-1.4-0.5
			C193,178.7,192.5,178.9,192.2,179.4z"/>
		<path d="M199.8,183.9v-0.6h1.8v-4.5h-1.8v-0.6h2.4v5.1h1.8v0.6H199.8z M201.3,176.5c0-0.2,0-0.3,0.1-0.4c0.1-0.1,0.2-0.1,0.4-0.1
			c0.3,0,0.5,0.2,0.5,0.5s-0.2,0.5-0.5,0.5C201.5,177.1,201.3,176.9,201.3,176.5z"/>
		<path d="M132.3,192.6h0.7l1.6,5.1h0.2l1.5-5.1h0.7l-1.7,5.7h-1.2L132.3,192.6z"/>
		<path d="M141,198.3v-0.6h1.8v-4.5H141v-0.6h2.4v5.1h1.8v0.6H141z M142.5,190.9c0-0.2,0-0.3,0.1-0.4s0.2-0.1,0.4-0.1
			c0.3,0,0.5,0.2,0.5,0.5s-0.2,0.5-0.5,0.5C142.7,191.5,142.5,191.3,142.5,190.9z"/>
		<path d="M149.4,198l0.2-0.6c0.8,0.3,1.4,0.4,1.8,0.4c0.4,0,0.8-0.1,1-0.3s0.4-0.4,0.4-0.8s-0.1-0.5-0.3-0.7s-0.6-0.3-1.2-0.4
			c-0.6-0.1-1-0.3-1.3-0.6c-0.3-0.2-0.4-0.6-0.4-1.1s0.2-0.8,0.5-1.1s0.8-0.4,1.4-0.4s1.2,0.1,1.9,0.4l-0.2,0.6
			c-0.7-0.2-1.2-0.3-1.6-0.3s-0.7,0.1-1,0.2c-0.2,0.2-0.4,0.4-0.4,0.6s0.1,0.5,0.3,0.6c0.2,0.2,0.6,0.3,1.2,0.5
			c0.6,0.2,1,0.3,1.3,0.6s0.4,0.6,0.4,1.1s-0.2,0.9-0.5,1.2c-0.3,0.3-0.8,0.4-1.4,0.4C150.8,198.4,150.1,198.3,149.4,198z"/>
		<path d="M157.8,198.3v-0.6h1.8v-4.5h-1.8v-0.6h2.4v5.1h1.8v0.6H157.8z M159.3,190.9c0-0.2,0-0.3,0.1-0.4s0.2-0.1,0.4-0.1
			c0.3,0,0.5,0.2,0.5,0.5s-0.2,0.5-0.5,0.5C159.5,191.5,159.3,191.3,159.3,190.9z"/>
		<path d="M165.9,195.5c0-2,0.8-2.9,2.3-2.9s2.3,1,2.3,2.9s-0.8,2.9-2.3,2.9S165.9,197.4,165.9,195.5z M168.2,193.2
			c-1.1,0-1.6,0.8-1.6,2.3s0.5,2.3,1.6,2.3c1.1,0,1.6-0.8,1.6-2.3S169.3,193.2,168.2,193.2z"/>
		<path d="M175.2,192.6l0,0.5c0.8-0.4,1.4-0.6,1.9-0.6c0.5,0,0.9,0.2,1.2,0.5s0.4,0.8,0.4,1.4v3.8h-0.6v-3.8c0-0.4-0.1-0.7-0.3-1
			c-0.2-0.2-0.5-0.4-0.9-0.4s-1,0.2-1.8,0.5v4.6h-0.6v-5.7H175.2z"/>
		<path d="M183,198.3v-0.6h1.8v-4.5H183v-0.6h2.4v5.1h1.8v0.6H183z M184.5,190.9c0-0.2,0-0.3,0.1-0.4c0.1-0.1,0.2-0.1,0.4-0.1
			c0.3,0,0.5,0.2,0.5,0.5s-0.2,0.5-0.5,0.5C184.7,191.5,184.5,191.3,184.5,190.9z"/>
		<path d="M134.2,212.8c-0.6,0-1-0.1-1.4-0.4s-0.5-0.7-0.5-1.3s0.2-1,0.6-1.3c0.4-0.3,0.9-0.5,1.5-0.5s1.1,0,1.6,0.1
			c0-0.7-0.1-1.2-0.3-1.5c-0.2-0.3-0.5-0.4-1.1-0.4s-1.2,0.1-1.9,0.4l-0.2-0.6c0.7-0.3,1.4-0.4,2-0.4c0.8,0,1.3,0.2,1.6,0.5
			s0.4,1,0.4,1.8v2.5l0.1,0.9l-0.6,0.1l-0.1-0.7c-0.2,0.2-0.4,0.3-0.8,0.5C134.9,212.7,134.6,212.8,134.2,212.8z M134.3,212.2
			c0.3,0,0.6-0.1,1-0.3s0.6-0.4,0.8-0.5V210c-0.5,0-1-0.1-1.5-0.1c-0.5,0-0.8,0.1-1.1,0.3s-0.4,0.5-0.4,0.8
			C133,211.8,133.4,212.2,134.3,212.2z"/>
		<path d="M149.4,212.7v-0.6h1.8v-4.5h-1.8V207h2.4v5.1h1.8v0.6H149.4z M150.9,205.3c0-0.2,0-0.3,0.1-0.4s0.2-0.1,0.4-0.1
			c0.3,0,0.5,0.2,0.5,0.5s-0.2,0.5-0.5,0.5C151.1,205.9,150.9,205.7,150.9,205.3z"/>
		<path d="M158.4,207l0,0.5c0.8-0.4,1.4-0.6,1.9-0.6s0.9,0.2,1.2,0.5c0.3,0.4,0.4,0.8,0.4,1.4v3.8h-0.6v-3.8c0-0.4-0.1-0.7-0.3-1
			c-0.2-0.2-0.5-0.4-0.9-0.4s-1,0.2-1.8,0.5v4.6h-0.6V207H158.4z"/>
		<path d="M165.9,207h0.7l1.6,5.1h0.2l1.5-5.1h0.7l-1.7,5.7h-1.2L165.9,207z"/>
		<path d="M176.2,212.8c-0.6,0-1-0.1-1.4-0.4s-0.5-0.7-0.5-1.3s0.2-1,0.6-1.3c0.4-0.3,0.9-0.5,1.5-0.5c0.6,0,1.1,0,1.6,0.1
			c0-0.7-0.1-1.2-0.3-1.5c-0.2-0.3-0.5-0.4-1.1-0.4c-0.5,0-1.2,0.1-1.9,0.4l-0.2-0.6c0.7-0.3,1.4-0.4,2-0.4c0.8,0,1.3,0.2,1.6,0.5
			c0.3,0.4,0.4,1,0.4,1.8v2.5l0.1,0.9l-0.6,0.1l-0.1-0.7c-0.2,0.2-0.4,0.3-0.8,0.5C176.9,212.7,176.5,212.8,176.2,212.8z
			 M176.3,212.2c0.3,0,0.6-0.1,1-0.3s0.6-0.4,0.8-0.5V210c-0.5,0-1-0.1-1.5-0.1c-0.5,0-0.8,0.1-1.1,0.3c-0.2,0.2-0.4,0.5-0.4,0.8
			C175,211.8,175.4,212.2,176.3,212.2z"/>
		<path d="M183,212.7v-0.6h1.4v-4.5H183V207h2l0,0.7c0.3-0.2,0.6-0.3,1.1-0.5c0.5-0.2,0.9-0.3,1.2-0.3h0.1v0.7h-0.1
			c-0.3,0-0.7,0.1-1.2,0.2c-0.5,0.1-0.8,0.3-1.1,0.4v3.8h1.9v0.6H183z"/>
		<path d="M191.4,212.7v-0.6h1.8v-4.5h-1.8V207h2.4v5.1h1.8v0.6H191.4z M192.9,205.3c0-0.2,0-0.3,0.1-0.4c0.1-0.1,0.2-0.1,0.4-0.1
			c0.3,0,0.5,0.2,0.5,0.5s-0.2,0.5-0.5,0.5C193.1,205.9,192.9,205.7,192.9,205.3z"/>
		<path d="M201.4,212.8c-0.6,0-1-0.1-1.4-0.4s-0.5-0.7-0.5-1.3s0.2-1,0.6-1.3c0.4-0.3,0.9-0.5,1.5-0.5c0.6,0,1.1,0,1.6,0.1
			c0-0.7-0.1-1.2-0.3-1.5c-0.2-0.3-0.5-0.4-1.1-0.4s-1.2,0.1-1.9,0.4l-0.2-0.6c0.7-0.3,1.4-0.4,2-0.4c0.8,0,1.3,0.2,1.6,0.5
			c0.3,0.4,0.4,1,0.4,1.8v2.5l0.1,0.9l-0.6,0.1l-0.1-0.7c-0.2,0.2-0.4,0.3-0.8,0.5C202.1,212.7,201.7,212.8,201.4,212.8z
			 M201.4,212.2c0.3,0,0.6-0.1,1-0.3s0.6-0.4,0.8-0.5V210c-0.5,0-1-0.1-1.5-0.1s-0.8,0.1-1.1,0.3s-0.4,0.5-0.4,0.8
			C200.2,211.8,200.6,212.2,201.4,212.2z"/>
		<path d="M208.8,207l0,0.5c0.8-0.4,1.4-0.6,1.9-0.6c0.5,0,0.9,0.2,1.2,0.5c0.3,0.4,0.4,0.8,0.4,1.4v3.8h-0.6v-3.8
			c0-0.4-0.1-0.7-0.3-1c-0.2-0.2-0.5-0.4-0.9-0.4c-0.4,0-1,0.2-1.8,0.5v4.6h-0.6V207H208.8z"/>
		<path d="M216.7,207.6V207h3.9l0.1,0.5l-3.2,4.6h3.3v0.6h-4l-0.1-0.5l3.2-4.6H216.7z"/>
		<path d="M226.6,212.8c-0.6,0-1-0.1-1.4-0.4s-0.5-0.7-0.5-1.3s0.2-1,0.6-1.3c0.4-0.3,0.9-0.5,1.5-0.5c0.6,0,1.1,0,1.6,0.1
			c0-0.7-0.1-1.2-0.3-1.5c-0.2-0.3-0.5-0.4-1.1-0.4s-1.2,0.1-1.9,0.4l-0.2-0.6c0.7-0.3,1.4-0.4,2-0.4c0.8,0,1.3,0.2,1.6,0.5
			c0.3,0.4,0.4,1,0.4,1.8v2.5l0.1,0.9l-0.6,0.1l-0.1-0.7c-0.2,0.2-0.4,0.3-0.8,0.5C227.3,212.7,226.9,212.8,226.6,212.8z
			 M226.6,212.2c0.3,0,0.6-0.1,1-0.3s0.6-0.4,0.8-0.5V210c-0.5,0-1-0.1-1.5-0.1s-0.8,0.1-1.1,0.3s-0.4,0.5-0.4,0.8
			C225.4,211.8,225.8,212.2,226.6,212.2z"/>
		<path d="M246,204.7v7l0.1,1l-0.6,0.1l-0.1-0.6c-0.6,0.4-1.2,0.6-1.7,0.6c-0.7,0-1.3-0.3-1.7-0.8c-0.4-0.5-0.6-1.2-0.6-2.2
			s0.2-1.6,0.7-2.1c0.4-0.5,1-0.8,1.8-0.8c0.4,0,0.9,0.1,1.4,0.3v-2.5H246z M242.1,209.9c0,0.7,0.1,1.3,0.4,1.7
			c0.3,0.4,0.7,0.6,1.2,0.6s1.1-0.2,1.6-0.7v-3.6c-0.2-0.1-0.4-0.2-0.7-0.2c-0.3-0.1-0.5-0.1-0.7-0.1c-0.6,0-1,0.2-1.3,0.6
			S242.1,209.1,242.1,209.9z"/>
		<path d="M250.2,212.7v-0.6h1.8v-4.5h-1.8V207h2.4v5.1h1.8v0.6H250.2z M251.7,205.3c0-0.2,0-0.3,0.1-0.4c0.1-0.1,0.2-0.1,0.4-0.1
			c0.3,0,0.5,0.2,0.5,0.5s-0.2,0.5-0.5,0.5C251.9,205.9,251.7,205.7,251.7,205.3z"/>
		<path d="M267,212.4l0.2-0.6c0.8,0.3,1.4,0.4,1.8,0.4s0.8-0.1,1-0.3c0.2-0.2,0.4-0.4,0.4-0.8s-0.1-0.5-0.3-0.7
			c-0.2-0.1-0.6-0.3-1.2-0.4s-1-0.3-1.3-0.6c-0.3-0.2-0.4-0.6-0.4-1.1s0.2-0.8,0.5-1.1c0.4-0.3,0.8-0.4,1.4-0.4s1.2,0.1,1.9,0.4
			l-0.2,0.6c-0.7-0.2-1.2-0.3-1.6-0.3s-0.7,0.1-1,0.2c-0.2,0.2-0.4,0.4-0.4,0.6s0.1,0.5,0.3,0.6c0.2,0.2,0.6,0.3,1.2,0.5
			s1,0.3,1.3,0.6c0.3,0.2,0.4,0.6,0.4,1.1s-0.2,0.9-0.5,1.2c-0.3,0.3-0.8,0.4-1.4,0.4C268.4,212.8,267.7,212.7,267,212.4z"/>
		<path d="M279.3,207.2l-0.1,0.6c-0.5-0.2-1-0.3-1.4-0.3c-0.6,0-1,0.2-1.3,0.6s-0.4,1-0.4,1.7s0.1,1.3,0.4,1.7s0.7,0.6,1.3,0.6
			c0.4,0,0.9-0.1,1.4-0.3l0.2,0.6c-0.6,0.2-1.1,0.3-1.6,0.3c-0.8,0-1.4-0.3-1.8-0.8c-0.4-0.5-0.6-1.3-0.6-2.2s0.2-1.7,0.6-2.2
			s1-0.8,1.8-0.8C278.3,206.9,278.8,207,279.3,207.2z"/>
		<path d="M285.4,212.8c-0.6,0-1-0.1-1.4-0.4s-0.5-0.7-0.5-1.3s0.2-1,0.6-1.3c0.4-0.3,0.9-0.5,1.5-0.5c0.6,0,1.1,0,1.6,0.1
			c0-0.7-0.1-1.2-0.3-1.5s-0.5-0.4-1.1-0.4s-1.2,0.1-1.9,0.4l-0.2-0.6c0.7-0.3,1.4-0.4,2-0.4c0.8,0,1.3,0.2,1.6,0.5
			c0.3,0.4,0.4,1,0.4,1.8v2.5l0.1,0.9l-0.6,0.1l-0.1-0.7c-0.2,0.2-0.4,0.3-0.8,0.5S285.7,212.8,285.4,212.8z M285.4,212.2
			c0.3,0,0.6-0.1,1-0.3s0.6-0.4,0.8-0.5V210c-0.5,0-1-0.1-1.5-0.1s-0.8,0.1-1.1,0.3s-0.4,0.5-0.4,0.8
			C284.2,211.8,284.6,212.2,285.4,212.2z"/>
		<path d="M292.4,212.7v-0.6h1.8v-6.8l-1.8,0l0-0.6l2.4,0v7.4h1.9v0.6H292.4z"/>
		<path d="M302.2,212.8c-0.6,0-1-0.1-1.4-0.4s-0.5-0.7-0.5-1.3s0.2-1,0.6-1.3c0.4-0.3,0.9-0.5,1.5-0.5c0.6,0,1.1,0,1.6,0.1
			c0-0.7-0.1-1.2-0.3-1.5s-0.5-0.4-1.1-0.4s-1.2,0.1-1.9,0.4l-0.2-0.6c0.7-0.3,1.4-0.4,2-0.4c0.8,0,1.3,0.2,1.6,0.5
			c0.3,0.4,0.4,1,0.4,1.8v2.5l0.1,0.9l-0.6,0.1l-0.1-0.7c-0.2,0.2-0.4,0.3-0.8,0.5S302.5,212.8,302.2,212.8z M302.2,212.2
			c0.3,0,0.6-0.1,1-0.3s0.6-0.4,0.8-0.5V210c-0.5,0-1-0.1-1.5-0.1s-0.8,0.1-1.1,0.3s-0.4,0.5-0.4,0.8
			C301,211.8,301.4,212.2,302.2,212.2z"/>
	</g>
	<g>
		<path d="M63.1,207.6l1.5-0.7h0.1v5c0,0.3,0,0.5,0,0.6s0.1,0.1,0.2,0.2s0.3,0.1,0.5,0.1v0.2h-2.2v-0.2c0.3,0,0.5,0,0.5-0.1
			c0.1,0,0.1-0.1,0.2-0.2s0-0.3,0-0.6v-3.2c0-0.4,0-0.7,0-0.8c0-0.1-0.1-0.2-0.1-0.2s-0.1-0.1-0.2-0.1c-0.1,0-0.3,0-0.5,0.1
			L63.1,207.6z"/>
		<path d="M68,212.1c0.1,0,0.3,0,0.3,0.1s0.1,0.2,0.1,0.3s0,0.3-0.1,0.3s-0.2,0.1-0.3,0.1s-0.3,0-0.3-0.1s-0.1-0.2-0.1-0.3
			s0-0.3,0.1-0.3S67.9,212.1,68,212.1z M68,208.8c0.1,0,0.3,0,0.3,0.1c0.1,0.1,0.1,0.2,0.1,0.3s0,0.3-0.1,0.3s-0.2,0.1-0.3,0.1
			s-0.3,0-0.3-0.1s-0.1-0.2-0.1-0.3s0-0.3,0.1-0.3S67.9,208.8,68,208.8z"/>
		<path d="M71,209.7c0.5-0.6,0.9-0.9,1.3-0.9c0.2,0,0.4,0.1,0.6,0.2c0.2,0.1,0.3,0.3,0.4,0.5c0.1,0.2,0.1,0.4,0.1,0.8v1.7
			c0,0.3,0,0.4,0.1,0.5c0,0.1,0.1,0.1,0.2,0.2s0.2,0.1,0.4,0.1v0.2h-2v-0.2h0.1c0.2,0,0.3,0,0.4-0.1c0.1-0.1,0.1-0.1,0.2-0.3
			c0,0,0-0.2,0-0.4v-1.6c0-0.4,0-0.6-0.1-0.8c-0.1-0.2-0.3-0.2-0.5-0.2c-0.3,0-0.7,0.2-1,0.6v2.1c0,0.3,0,0.4,0,0.5
			c0,0.1,0.1,0.1,0.2,0.2s0.2,0.1,0.4,0.1v0.2h-2v-0.2h0.1c0.2,0,0.3-0.1,0.4-0.2s0.1-0.3,0.1-0.6v-1.5c0-0.5,0-0.8,0-0.9
			s-0.1-0.2-0.1-0.2s-0.1-0.1-0.2-0.1c-0.1,0-0.2,0-0.3,0.1l-0.1-0.2l1.2-0.5H71L71,209.7L71,209.7z"/>
	</g>
	<g>
		<path d="M110.1,73.1l1.4-0.7h0.1v5c0,0.3,0,0.5,0,0.6s0.1,0.1,0.2,0.2s0.3,0.1,0.5,0.1v0.2h-2.2v-0.2c0.3,0,0.5,0,0.5-0.1
			c0.1,0,0.1-0.1,0.2-0.2s0-0.3,0-0.6v-3.2c0-0.4,0-0.7,0-0.8c0-0.1-0.1-0.2-0.1-0.2s-0.1-0.1-0.2-0.1c-0.1,0-0.3,0-0.5,0.1
			L110.1,73.1z"/>
		<path d="M115,77.6c0.1,0,0.3,0,0.3,0.1s0.1,0.2,0.1,0.3s0,0.3-0.1,0.3s-0.2,0.1-0.3,0.1s-0.3,0-0.3-0.1s-0.1-0.2-0.1-0.3
			s0-0.3,0.1-0.3S114.9,77.6,115,77.6z M115,74.3c0.1,0,0.3,0,0.3,0.1c0.1,0.1,0.1,0.2,0.1,0.3s0,0.3-0.1,0.3s-0.2,0.1-0.3,0.1
			s-0.3,0-0.3-0.1s-0.1-0.2-0.1-0.3s0-0.3,0.1-0.3C114.8,74.4,114.9,74.3,115,74.3z"/>
		<path d="M117.5,73.1l1.4-0.7h0.1v5c0,0.3,0,0.5,0,0.6s0.1,0.1,0.2,0.2s0.3,0.1,0.5,0.1v0.2h-2.2v-0.2c0.3,0,0.5,0,0.5-0.1
			c0.1,0,0.1-0.1,0.2-0.2s0-0.3,0-0.6v-3.2c0-0.4,0-0.7,0-0.8c0-0.1-0.1-0.2-0.1-0.2s-0.1-0.1-0.2-0.1c-0.1,0-0.3,0-0.5,0.1
			L117.5,73.1z"/>
	</g>
	<g>
		<path d="M140,112c-2.6,0-4.7-0.9-6.2-2.8c-1.5-1.8-2-4.1-1.6-6.6L136,81c0.5-2.6,1.8-4.9,3.9-6.7c2.2-1.8,4.6-2.8,7.2-2.8
			c2.6,0,4.7,0.9,6.2,2.8c1.5,1.8,2,4.1,1.6,6.7l-0.8,4.5h-6.2l0.8-4.6c0.2-0.9,0-1.8-0.6-2.4c-0.6-0.7-1.3-1-2.2-1
			c-0.9,0-1.8,0.3-2.6,1c-0.8,0.7-1.3,1.5-1.4,2.4l-3.8,21.6c-0.2,0.9,0,1.7,0.6,2.4c0.5,0.7,1.3,1,2.2,1c0.9,0,1.8-0.3,2.6-1
			c0.8-0.7,1.3-1.5,1.4-2.4l1.4-7.8H143l1.1-6h9.5l-2.4,13.8c-0.5,2.6-1.8,4.8-3.9,6.7C144.9,111.1,142.6,112,140,112z"/>
		<path d="M163.9,102.4l-3,9.1h-6.2L168.3,72h8.2l-0.3,39.4h-6.3l0.2-9.1C170.1,102.4,163.9,102.4,163.9,102.4z M170.8,81.1
			l-4.9,15.5h4.4L170.8,81.1z"/>
		<path d="M187.3,111.5h-5.9l7-39.5h8.5l0.5,28.4L207.7,72h8.2l-7,39.5H203l4.4-24.8l-9.5,24.8h-4.8l-1.4-24.7L187.3,111.5z"/>
		<path d="M214.2,111.5l7-39.5H238l-1.1,6h-11l-1.9,10.8h8l-1.1,6h-8l-1.9,10.8h11l-1.1,6L214.2,111.5L214.2,111.5z"/>
	</g>
	<g id="S_T_U_D_I_O__D_I_P_R_O_G_E_T_T_A_Z_I_O_N_E">
		<path class="st0" d="M134.4,124.3c-0.7-0.2-1.2-0.4-1.6-0.8s-0.5-0.8-0.5-1.4c0-0.6,0.2-1.1,0.7-1.5c0.4-0.4,1-0.5,1.7-0.5
			s1.4,0.1,2.1,0.4l-0.2,0.6c-0.7-0.2-1.3-0.4-1.8-0.4s-1,0.1-1.3,0.4c-0.3,0.2-0.4,0.6-0.4,1s0.1,0.8,0.4,1
			c0.2,0.2,0.7,0.4,1.4,0.6c0.7,0.2,1.2,0.4,1.6,0.7c0.3,0.3,0.5,0.8,0.5,1.5s-0.2,1.2-0.7,1.6c-0.5,0.4-1.1,0.6-1.8,0.6
			c-0.5,0-1.2-0.1-2.1-0.3l0.2-0.6c0.8,0.2,1.5,0.3,2,0.3s0.9-0.1,1.2-0.4s0.5-0.7,0.5-1.2c0-0.5-0.1-0.9-0.3-1.1
			S135.1,124.5,134.4,124.3z"/>
		<path class="st0" d="M147.2,120.9v-0.6h4.8v0.6h-2.1v7.2h-0.7v-7.2H147.2z"/>
		<path class="st0" d="M162.3,125.9v-5.6h0.7v5.5c0,1.2,0.6,1.8,1.7,1.8c0.6,0,1-0.2,1.3-0.5c0.3-0.3,0.4-0.8,0.4-1.3v-5.5h0.7v5.6
			c0,0.8-0.2,1.4-0.6,1.8c-0.4,0.4-1,0.6-1.8,0.6c-0.8,0-1.4-0.2-1.7-0.6C162.5,127.2,162.3,126.6,162.3,125.9z"/>
		<path class="st0" d="M177.3,128.1v-7.9h1.6c0.6,0,1.1,0.1,1.5,0.2c0.4,0.1,0.7,0.3,1,0.6s0.5,0.7,0.6,1.2c0.1,0.5,0.2,1.2,0.2,1.9
			s-0.1,1.4-0.2,1.9c-0.1,0.5-0.3,0.9-0.6,1.2c-0.3,0.3-0.6,0.5-1,0.6c-0.4,0.1-0.8,0.2-1.4,0.2H177.3z M180.4,127.3
			c0.3-0.2,0.6-0.5,0.8-1s0.3-1.2,0.3-2.1c0-0.9-0.1-1.6-0.3-2.1c-0.2-0.5-0.4-0.8-0.8-1c-0.3-0.2-0.8-0.3-1.4-0.3H178v6.7h0.9
			C179.5,127.5,180,127.4,180.4,127.3z"/>
		<path class="st0" d="M193,128.1v-0.6h1.4v-6.7H193v-0.6h3.3v0.6H195v6.7h1.3v0.6L193,128.1L193,128.1z"/>
		<path class="st0" d="M207.1,124.1c0-0.6,0-1.2,0.1-1.6s0.2-0.9,0.4-1.2c0.4-0.7,1-1.1,2-1.1c1.1,0,1.9,0.5,2.2,1.6
			c0.2,0.6,0.3,1.3,0.3,2.1s0,1.5-0.1,1.9s-0.2,0.9-0.4,1.3c-0.4,0.8-1,1.2-2,1.2c-1,0-1.6-0.4-2-1.2
			C207.3,126.4,207.1,125.4,207.1,124.1z M211.4,124.2c0-0.4,0-0.8,0-1s-0.1-0.6-0.1-0.9c-0.1-0.3-0.2-0.6-0.3-0.8
			c-0.1-0.2-0.3-0.4-0.5-0.5c-0.2-0.1-0.5-0.2-0.8-0.2s-0.6,0.1-0.8,0.2c-0.2,0.1-0.4,0.3-0.5,0.5c-0.1,0.2-0.2,0.5-0.3,0.8
			c-0.1,0.5-0.2,1-0.2,1.7c0,0.6,0,1.1,0.1,1.5c0,0.4,0.1,0.7,0.2,1.1c0.2,0.7,0.7,1.1,1.5,1.1c0.8,0,1.3-0.4,1.5-1.1
			C211.3,125.9,211.4,125.1,211.4,124.2z"/>
		<path class="st0" d="M229.8,128.1v-7.9h1.6c0.6,0,1.1,0.1,1.5,0.2c0.4,0.1,0.7,0.3,1,0.6s0.5,0.7,0.6,1.2c0.1,0.5,0.2,1.2,0.2,1.9
			s-0.1,1.4-0.2,1.9c-0.1,0.5-0.3,0.9-0.6,1.2c-0.3,0.3-0.6,0.5-1,0.6c-0.4,0.1-0.8,0.2-1.4,0.2H229.8z M232.8,127.3
			c0.3-0.2,0.6-0.5,0.8-1s0.3-1.2,0.3-2.1c0-0.9-0.1-1.6-0.3-2.1s-0.4-0.8-0.8-1c-0.3-0.2-0.8-0.3-1.4-0.3h-0.9v6.7h0.9
			C232,127.5,232.5,127.4,232.8,127.3z"/>
		<path class="st0" d="M245.4,128.1v-0.6h1.4v-6.7h-1.4v-0.6h3.3v0.6h-1.3v6.7h1.3v0.6L245.4,128.1L245.4,128.1z"/>
		<path class="st0" d="M134.2,139.6h-1.1v2.9h-0.7v-7.9h1.8c1,0,1.7,0.2,2.1,0.5c0.5,0.4,0.7,1,0.7,1.9s-0.2,1.5-0.7,1.9
			C135.9,139.4,135.2,139.6,134.2,139.6z M134.2,135.3h-1.1v3.8h1.1c0.7,0,1.3-0.1,1.6-0.4c0.3-0.3,0.5-0.8,0.5-1.5
			s-0.2-1.2-0.5-1.4S135,135.3,134.2,135.3z"/>
		<path class="st0" d="M149.9,139.3c-0.4,0-0.7,0-0.8,0h-1v3.2h-0.7v-7.9h1.8c1,0,1.7,0.2,2.1,0.5c0.5,0.3,0.7,0.9,0.7,1.8
			c0,0.6-0.1,1-0.3,1.4s-0.6,0.6-1.1,0.8c0.5,1,1,2.2,1.5,3.4h-0.7C150.9,141.4,150.4,140.3,149.9,139.3z M149.1,135.3H148v3.5h1
			c0.7,0,1.3-0.1,1.7-0.4c0.4-0.3,0.6-0.7,0.6-1.4s-0.2-1.1-0.5-1.3C150.4,135.4,149.9,135.3,149.1,135.3z"/>
		<path class="st0" d="M162.1,138.5c0-0.6,0-1.2,0.1-1.6s0.2-0.9,0.4-1.2c0.4-0.7,1-1.1,2-1.1c1.1,0,1.9,0.5,2.2,1.6
			c0.2,0.6,0.3,1.3,0.3,2.1s0,1.5-0.1,1.9s-0.2,0.9-0.4,1.3c-0.4,0.8-1,1.2-2,1.2c-1,0-1.6-0.4-2-1.2
			C162.3,140.8,162.1,139.8,162.1,138.5z M166.4,138.6c0-0.4,0-0.8,0-1s-0.1-0.6-0.1-0.9c-0.1-0.3-0.2-0.6-0.3-0.8
			c-0.1-0.2-0.3-0.4-0.5-0.5s-0.5-0.2-0.8-0.2s-0.6,0.1-0.8,0.2c-0.2,0.1-0.4,0.3-0.5,0.5s-0.2,0.5-0.3,0.8c-0.1,0.5-0.2,1-0.2,1.6
			c0,0.6,0,1.1,0.1,1.5c0,0.4,0.1,0.7,0.2,1.1c0.2,0.7,0.7,1.1,1.5,1.1c0.8,0,1.3-0.4,1.5-1.1C166.4,140.3,166.5,139.5,166.4,138.6z
			"/>
		<path class="st0" d="M177.8,141.7c-0.4-0.6-0.7-1.7-0.7-3.1s0.2-2.4,0.7-3.1c0.4-0.6,1.2-1,2.1-1c0.6,0,1.3,0.1,2,0.4l-0.2,0.6
			c-0.7-0.2-1.4-0.4-1.9-0.4c-0.8,0-1.3,0.3-1.6,0.8s-0.5,1.4-0.5,2.6c0,1.2,0.2,2.1,0.5,2.6s0.8,0.8,1.5,0.8c0.4,0,0.9-0.1,1.5-0.3
			v-2.4h-1.4v-0.6h2v3.5c-0.8,0.3-1.5,0.4-2.1,0.4C178.9,142.6,178.2,142.3,177.8,141.7z"/>
		<path class="st0" d="M192.6,142.5v-7.9h4.1v0.6h-3.4v3h3.1v0.6h-3.1v3.1h3.5v0.6L192.6,142.5L192.6,142.5z"/>
		<path class="st0" d="M207.2,135.3v-0.6h4.8v0.6h-2.1v7.2h-0.7v-7.2H207.2z"/>
		<path class="st0" d="M222.2,135.3v-0.6h4.8v0.6h-2.1v7.2h-0.7v-7.2H222.2z"/>
		<path class="st0" d="M236.8,142.5l2.3-7.9h1.1l2.2,7.9h-0.7l-0.5-1.8H238l-0.5,1.8H236.8z M241,140.1l-1.3-4.8h-0.2l-1.4,4.8H241z
			"/>
		<path class="st0" d="M252.4,135.3v-0.6h4.2l0.1,0.5l-3.5,6.8h3.7v0.6h-4.4l-0.1-0.5l3.5-6.8H252.4z"/>
		<path class="st0" d="M267.9,142.5v-0.6h1.4v-6.7h-1.4v-0.6h3.3v0.6h-1.3v6.7h1.3v0.6H267.9z"/>
		<path class="st0" d="M282.1,138.5c0-0.6,0-1.2,0.1-1.6s0.2-0.9,0.4-1.2c0.4-0.7,1-1.1,2-1.1c1.1,0,1.9,0.5,2.2,1.6
			c0.2,0.6,0.3,1.3,0.3,2.1s0,1.5-0.1,1.9s-0.2,0.9-0.4,1.3c-0.4,0.8-1,1.2-2,1.2c-1,0-1.6-0.4-2-1.2
			C282.2,140.8,282.1,139.8,282.1,138.5z M286.4,138.6c0-0.4,0-0.8,0-1s-0.1-0.6-0.1-0.9c-0.1-0.3-0.2-0.6-0.3-0.8
			c-0.1-0.2-0.3-0.4-0.5-0.5c-0.2-0.1-0.5-0.2-0.8-0.2s-0.6,0.1-0.8,0.2c-0.2,0.1-0.4,0.3-0.5,0.5c-0.1,0.2-0.2,0.5-0.3,0.8
			c-0.1,0.5-0.2,1-0.2,1.6c0,0.6,0,1.1,0.1,1.5c0,0.4,0.1,0.7,0.2,1.1c0.2,0.7,0.7,1.1,1.5,1.1c0.8,0,1.3-0.4,1.5-1.1
			C286.3,140.3,286.4,139.5,286.4,138.6z"/>
		<path class="st0" d="M301.3,142.5v-1.2l-3.4-5.4h0v6.6h-0.7v-7.9h0.6l3.4,5.4h0v-5.4h0.7v7.9H301.3z"/>
		<path class="st0" d="M312.6,142.5v-7.9h4.1v0.6h-3.4v3h3.1v0.6h-3.1v3.1h3.5v0.6L312.6,142.5L312.6,142.5z"/>
	</g>
</g>
</svg>
